<?xml version="1.0" encoding="UTF-8" standalone="no"?>
<!DOCTYPE svg PUBLIC "-//W3C//DTD SVG 1.1//EN" "http://www.w3.org/Graphics/SVG/1.1/DTD/svg11.dtd">
<svg xmlns="http://www.w3.org/2000/svg" version="1.1" viewBox="0.00 0.00 500.00 500.00">
<g stroke-width="2.00" fill="none" stroke-linecap="butt">
<path stroke="#f9da7e" vector-effect="non-scaling-stroke" d="
  M 82.94 164.99
  Q 80.61 168.69 78.91 172.69
  Q 72.49 187.81 68.58 202.52
  C 64.89 216.41 63.77 230.23 62.38 244.83
  Q 62.10 247.78 62.35 250.67
  Q 63.28 261.13 64.29 271.07
  Q 66.36 291.47 73.45 311.28
  Q 76.85 320.78 79.84 327.42
  Q 80.86 329.68 83.01 332.95"
/>
<path stroke="#96d0a5" vector-effect="non-scaling-stroke" d="
  M 83.01 332.95
  Q 84.20 335.66 85.25 337.56
  Q 118.00 396.90 179.12 422.44
  Q 187.22 425.82 196.77 428.67
  Q 208.21 432.09 217.11 433.61
  Q 233.07 436.34 251.28 436.17
  C 265.86 436.04 279.55 435.26 293.17 432.25
  Q 307.17 429.15 317.65 425.41
  Q 339.19 417.73 358.41 404.46
  Q 361.82 402.09 366.63 398.00
  Q 370.48 394.73 374.69 391.33"
/>
<path stroke="#9dbff6" vector-effect="non-scaling-stroke" d="
  M 374.69 391.33
  Q 400.10 367.72 414.23 335.02
  Q 427.77 303.67 429.64 270.17
  C 430.67 251.72 430.05 233.36 427.18 215.03
  Q 427.01 213.99 425.97 213.99
  L 251.50 213.99
  A 0.51 0.50 -90.0 0 0 251.00 214.50
  L 251.01 286.15
  Q 251.01 286.79 251.65 286.80
  L 352.24 286.94
  Q 353.28 286.95 353.01 287.95
  C 352.29 290.64 351.90 293.29 351.02 295.96
  Q 347.91 305.30 345.39 310.57
  Q 337.64 326.80 323.85 338.64
  C 321.49 340.67 318.85 342.32 316.53 344.38"
/>
<path stroke="#96d0a5" vector-effect="non-scaling-stroke" d="
  M 316.53 344.38
  Q 309.36 349.19 306.05 350.82
  Q 274.33 366.37 239.10 363.06
  C 233.48 362.53 227.75 360.84 222.19 359.70
  C 215.08 358.25 208.76 355.38 202.26 352.20
  Q 173.11 337.94 155.45 309.56
  Q 148.17 297.87 143.91 285.34"
/>
<path stroke="#f9da7e" vector-effect="non-scaling-stroke" d="
  M 143.91 285.34
  Q 138.81 269.46 138.14 253.76
  Q 137.26 232.72 144.01 212.08"
/>
<path stroke="#f19d95" vector-effect="non-scaling-stroke" d="
  M 144.01 212.08
  Q 146.37 205.30 149.48 198.97
  C 157.94 181.74 170.25 166.73 185.79 155.48
  Q 218.69 131.66 260.06 134.67
  C 283.63 136.38 305.37 146.14 322.72 162.23
  A 0.55 0.55 0.0 0 0 323.48 162.22
  L 374.77 110.93
  A 1.29 1.28 -46.4 0 0 374.73 109.08
  Q 343.84 80.91 304.65 69.07
  C 292.93 65.53 279.35 63.21 266.89 61.86
  Q 248.01 59.80 225.87 62.95
  Q 212.25 64.88 201.88 67.72
  Q 154.15 80.81 119.23 114.96
  Q 100.58 133.20 86.93 156.70
  Q 84.60 160.72 82.94 164.99"
/>
<path stroke="#f2801c" vector-effect="non-scaling-stroke" d="
  M 144.01 212.08
  L 82.94 164.99"
/>
<path stroke="#97b22c" vector-effect="non-scaling-stroke" d="
  M 143.91 285.34
  L 83.01 332.95"
/>
<path stroke="#3b97a4" vector-effect="non-scaling-stroke" d="
  M 374.69 391.33
  L 317.43 346.87
  Q 317.04 346.56 316.92 346.07
  L 316.53 344.38"
/>
</g>
<path fill="#f7f7f7" d="
  M 0.00 0.00
  L 500.00 0.00
  L 500.00 500.00
  L 0.00 500.00
  L 0.00 0.00
  Z
  M 82.94 164.99
  Q 80.61 168.69 78.91 172.69
  Q 72.49 187.81 68.58 202.52
  C 64.89 216.41 63.77 230.23 62.38 244.83
  Q 62.10 247.78 62.35 250.67
  Q 63.28 261.13 64.29 271.07
  Q 66.36 291.47 73.45 311.28
  Q 76.85 320.78 79.84 327.42
  Q 80.86 329.68 83.01 332.95
  Q 84.20 335.66 85.25 337.56
  Q 118.00 396.90 179.12 422.44
  Q 187.22 425.82 196.77 428.67
  Q 208.21 432.09 217.11 433.61
  Q 233.07 436.34 251.28 436.17
  C 265.86 436.04 279.55 435.26 293.17 432.25
  Q 307.17 429.15 317.65 425.41
  Q 339.19 417.73 358.41 404.46
  Q 361.82 402.09 366.63 398.00
  Q 370.48 394.73 374.69 391.33
  Q 400.10 367.72 414.23 335.02
  Q 427.77 303.67 429.64 270.17
  C 430.67 251.72 430.05 233.36 427.18 215.03
  Q 427.01 213.99 425.97 213.99
  L 251.50 213.99
  A 0.51 0.50 -90.0 0 0 251.00 214.50
  L 251.01 286.15
  Q 251.01 286.79 251.65 286.80
  L 352.24 286.94
  Q 353.28 286.95 353.01 287.95
  C 352.29 290.64 351.90 293.29 351.02 295.96
  Q 347.91 305.30 345.39 310.57
  Q 337.64 326.80 323.85 338.64
  C 321.49 340.67 318.85 342.32 316.53 344.38
  Q 309.36 349.19 306.05 350.82
  Q 274.33 366.37 239.10 363.06
  C 233.48 362.53 227.75 360.84 222.19 359.70
  C 215.08 358.25 208.76 355.38 202.26 352.20
  Q 173.11 337.94 155.45 309.56
  Q 148.17 297.87 143.91 285.34
  Q 138.81 269.46 138.14 253.76
  Q 137.26 232.72 144.01 212.08
  Q 146.37 205.30 149.48 198.97
  C 157.94 181.74 170.25 166.73 185.79 155.48
  Q 218.69 131.66 260.06 134.67
  C 283.63 136.38 305.37 146.14 322.72 162.23
  A 0.55 0.55 0.0 0 0 323.48 162.22
  L 374.77 110.93
  A 1.29 1.28 -46.4 0 0 374.73 109.08
  Q 343.84 80.91 304.65 69.07
  C 292.93 65.53 279.35 63.21 266.89 61.86
  Q 248.01 59.80 225.87 62.95
  Q 212.25 64.88 201.88 67.72
  Q 154.15 80.81 119.23 114.96
  Q 100.58 133.20 86.93 156.70
  Q 84.60 160.72 82.94 164.99
  Z"
/>
<path fill="#ea4333" d="
  M 144.01 212.08
  L 82.94 164.99
  Q 84.60 160.72 86.93 156.70
  Q 100.58 133.20 119.23 114.96
  Q 154.15 80.81 201.88 67.72
  Q 212.25 64.88 225.87 62.95
  Q 248.01 59.80 266.89 61.86
  C 279.35 63.21 292.93 65.53 304.65 69.07
  Q 343.84 80.91 374.73 109.08
  A 1.29 1.28 -46.4 0 1 374.77 110.93
  L 323.48 162.22
  A 0.55 0.55 0.0 0 1 322.72 162.23
  C 305.37 146.14 283.63 136.38 260.06 134.67
  Q 218.69 131.66 185.79 155.48
  C 170.25 166.73 157.94 181.74 149.48 198.97
  Q 146.37 205.30 144.01 212.08
  Z"
/>
<path fill="#fabc05" d="
  M 82.94 164.99
  L 144.01 212.08
  Q 137.26 232.72 138.14 253.76
  Q 138.81 269.46 143.91 285.34
  L 83.01 332.95
  Q 80.86 329.68 79.84 327.42
  Q 76.85 320.78 73.45 311.28
  Q 66.36 291.47 64.29 271.07
  Q 63.28 261.13 62.35 250.67
  Q 62.10 247.78 62.38 244.83
  C 63.77 230.23 64.89 216.41 68.58 202.52
  Q 72.49 187.81 78.91 172.69
  Q 80.61 168.69 82.94 164.99
  Z"
/>
<path fill="#4286f5" d="
  M 374.69 391.33
  L 317.43 346.87
  Q 317.04 346.56 316.92 346.07
  L 316.53 344.38
  C 318.85 342.32 321.49 340.67 323.85 338.64
  Q 337.64 326.80 345.39 310.57
  Q 347.91 305.30 351.02 295.96
  C 351.90 293.29 352.29 290.64 353.01 287.95
  Q 353.28 286.95 352.24 286.94
  L 251.65 286.80
  Q 251.01 286.79 251.01 286.15
  L 251.00 214.50
  A 0.51 0.50 -90.0 0 1 251.50 213.99
  L 425.97 213.99
  Q 427.01 213.99 427.18 215.03
  C 430.05 233.36 430.67 251.72 429.64 270.17
  Q 427.77 303.67 414.23 335.02
  Q 400.10 367.72 374.69 391.33
  Z"
/>
<path fill="#34a853" d="
  M 143.91 285.34
  Q 148.17 297.87 155.45 309.56
  Q 173.11 337.94 202.26 352.20
  C 208.76 355.38 215.08 358.25 222.19 359.70
  C 227.75 360.84 233.48 362.53 239.10 363.06
  Q 274.33 366.37 306.05 350.82
  Q 309.36 349.19 316.53 344.38
  L 316.92 346.07
  Q 317.04 346.56 317.43 346.87
  L 374.69 391.33
  Q 370.48 394.73 366.63 398.00
  Q 361.82 402.09 358.41 404.46
  Q 339.19 417.73 317.65 425.41
  Q 307.17 429.15 293.17 432.25
  C 279.55 435.26 265.86 436.04 251.28 436.17
  Q 233.07 436.34 217.11 433.61
  Q 208.21 432.09 196.77 428.67
  Q 187.22 425.82 179.12 422.44
  Q 118.00 396.90 85.25 337.56
  Q 84.20 335.66 83.01 332.95
  L 143.91 285.34
  Z"
/>
</svg>
