<?xml version="1.0" encoding="UTF-8" standalone="no"?>
<!DOCTYPE svg PUBLIC "-//W3C//DTD SVG 1.1//EN" "http://www.w3.org/Graphics/SVG/1.1/DTD/svg11.dtd">
<svg xmlns="http://www.w3.org/2000/svg" version="1.1" viewBox="0.00 0.00 500.00 119.00" width="500.00" height="119.00">
<g stroke-width="2.00" fill="none" stroke-linecap="butt">
<path stroke="#a29d97" vector-effect="non-scaling-stroke" d="
  M 124.31 29.74
  Q 123.55 31.06 124.38 32.12
  Q 127.39 35.98 128.30 37.52"
/>
<path stroke="#c4bdb9" vector-effect="non-scaling-stroke" d="
  M 128.30 37.52
  Q 129.01 39.08 128.32 39.87"
/>
<path stroke="#a29d97" vector-effect="non-scaling-stroke" d="
  M 128.32 39.87
  L 124.84 40.05
  Q 124.28 40.08 124.12 40.61
  C 123.33 43.08 127.24 44.53 128.85 45.60
  Q 130.03 46.38 131.86 48.38
  Q 134.62 51.38 138.30 53.17"
/>
<path stroke="#c4bdb9" vector-effect="non-scaling-stroke" d="
  M 138.30 53.17
  Q 138.48 53.65 137.88 54.14"
/>
<path stroke="#c4bdb9" vector-effect="non-scaling-stroke" d="
  M 93.41 52.12
  L 92.45 47.62"
/>
<path stroke="#52626c" vector-effect="non-scaling-stroke" d="
  M 92.45 47.62
  C 93.98 46.16 95.05 44.58 97.00 43.74
  C 98.65 43.02 99.82 41.76 101.33 40.80
  Q 103.24 39.57 105.31 38.46
  Q 105.35 38.44 105.33 38.41
  L 105.19 38.19
  Q 105.09 38.03 104.93 38.13
  Q 99.42 41.75 93.77 45.17"
/>
<path stroke="#c4bdb9" vector-effect="non-scaling-stroke" d="
  M 93.77 45.17
  Q 92.69 44.28 92.75 43.36"
/>
<path stroke="#a29d97" vector-effect="non-scaling-stroke" d="
  M 92.75 43.36
  Q 93.61 42.12 93.41 41.11
  Q 93.30 40.54 93.04 41.07
  L 92.07 43.04"
/>
<path stroke="#52626c" vector-effect="non-scaling-stroke" d="
  M 92.07 43.04
  L 82.62 42.50"
/>
<path stroke="#efc68d" vector-effect="non-scaling-stroke" d="
  M 158.61 46.59
  Q 159.79 53.22 158.48 59.81"
/>
<path stroke="#c39578" vector-effect="non-scaling-stroke" d="
  M 138.30 53.17
  Q 138.52 53.56 138.99 53.77
  Q 139.29 53.90 139.56 53.72
  Q 139.85 53.51 139.68 52.92
  A 0.68 0.65 11.8 0 0 139.43 52.56
  C 137.99 51.51 136.40 51.08 135.16 49.70
  Q 131.66 45.79 126.45 43.16
  Q 125.43 42.64 125.12 41.59
  A 0.62 0.62 0.0 0 1 125.75 40.79
  L 130.26 41.10
  Q 130.64 41.12 130.91 41.41
  Q 131.07 41.58 131.35 41.61
  Q 132.16 41.69 131.52 41.19
  Q 130.47 40.38 130.90 39.02
  Q 130.98 38.74 130.71 38.64
  Q 130.48 38.56 130.28 38.71
  Q 130.10 38.84 130.07 39.06
  Q 129.87 40.21 128.32 39.87"
/>
<path stroke="#735b4d" vector-effect="non-scaling-stroke" d="
  M 92.45 47.62
  C 88.17 45.26 85.03 49.04 82.82 52.08
  Q 82.80 52.11 82.76 52.09
  L 82.55 51.94
  A 0.25 0.25 0.0 0 1 82.49 51.60
  C 84.18 48.97 87.27 45.39 90.34 46.33
  Q 91.64 46.72 92.21 46.54
  Q 93.22 46.23 93.77 45.17"
/>
<path stroke="#503b2b" vector-effect="non-scaling-stroke" d="
  M 92.75 43.36
  Q 92.72 42.95 92.07 43.04"
/>
<path stroke="#735b4d" vector-effect="non-scaling-stroke" d="
  M 92.75 43.36
  Q 87.00 44.39 81.47 43.28"
/>
<path stroke="#c39578" vector-effect="non-scaling-stroke" d="
  M 125.20 30.28
  Q 124.91 30.95 125.33 31.44
  Q 127.11 33.53 129.30 34.27
  C 132.04 35.20 134.07 38.44 135.26 40.84
  Q 135.34 40.99 135.19 41.07
  L 134.93 41.21
  Q 134.81 41.28 134.72 41.17
  L 131.62 37.37
  A 0.76 0.76 0.0 0 0 130.33 37.54
  Q 129.86 38.61 128.30 37.52"
/>
<path stroke="#c39578" vector-effect="non-scaling-stroke" d="
  M 53.94 46.94
  Q 53.75 49.12 52.62 51.37
  Q 51.74 53.15 52.14 60.39"
/>
<path stroke="#a29d97" vector-effect="non-scaling-stroke" d="
  M 103.53 35.18
  C 106.03 35.18 106.91 33.36 109.03 32.49
  Q 110.65 31.82 111.76 30.80
  C 113.21 29.47 115.11 28.99 116.50 27.77
  Q 119.38 25.25 116.01 27.07
  Q 111.02 29.76 106.10 33.43
  Q 105.03 34.23 103.67 34.20
  A 0.39 0.39 0.0 0 0 103.28 34.58
  L 103.28 34.93
  Q 103.28 35.18 103.53 35.18"
/>
<path stroke="#a29d97" vector-effect="non-scaling-stroke" d="
  M 119.5423 28.9731
  A 1.52 0.50 -37.1 0 0 118.0284 29.4912
  A 1.52 0.50 -37.1 0 0 117.1177 30.8069
  A 1.52 0.50 -37.1 0 0 118.6316 30.2888
  A 1.52 0.50 -37.1 0 0 119.5423 28.9731"
/>
</g>
<path fill="#a3c4d7" d="
  M 124.31 29.74
  Q 123.55 31.06 124.38 32.12
  Q 127.39 35.98 128.30 37.52
  Q 129.01 39.08 128.32 39.87
  L 124.84 40.05
  Q 124.28 40.08 124.12 40.61
  C 123.33 43.08 127.24 44.53 128.85 45.60
  Q 130.03 46.38 131.86 48.38
  Q 134.62 51.38 138.30 53.17
  Q 138.48 53.65 137.88 54.14
  Q 135.24 53.70 132.30 55.80
  Q 122.26 62.95 113.86 68.80
  Q 112.53 69.73 111.18 70.37
  A 1.52 1.51 54.2 0 1 109.50 70.09
  Q 105.02 65.82 101.60 60.56
  Q 98.82 56.30 96.07 53.19
  Q 94.79 51.75 93.41 52.12
  L 92.45 47.62
  C 93.98 46.16 95.05 44.58 97.00 43.74
  C 98.65 43.02 99.82 41.76 101.33 40.80
  Q 103.24 39.57 105.31 38.46
  Q 105.35 38.44 105.33 38.41
  L 105.19 38.19
  Q 105.09 38.03 104.93 38.13
  Q 99.42 41.75 93.77 45.17
  Q 92.69 44.28 92.75 43.36
  Q 93.61 42.12 93.41 41.11
  Q 93.30 40.54 93.04 41.07
  L 92.07 43.04
  L 82.62 42.50
  Q 83.81 41.42 85.61 41.81
  A 0.96 0.96 0.0 0 0 86.62 40.35
  C 84.82 37.52 79.46 34.98 84.24 31.22
  Q 94.07 23.49 103.97 16.18
  C 106.02 14.66 108.98 11.81 111.43 14.45
  Q 117.27 20.77 122.17 27.78
  Q 122.52 28.29 124.31 29.74
  Z
  M 103.53 35.18
  C 106.03 35.18 106.91 33.36 109.03 32.49
  Q 110.65 31.82 111.76 30.80
  C 113.21 29.47 115.11 28.99 116.50 27.77
  Q 119.38 25.25 116.01 27.07
  Q 111.02 29.76 106.10 33.43
  Q 105.03 34.23 103.67 34.20
  A 0.39 0.39 0.0 0 0 103.28 34.58
  L 103.28 34.93
  Q 103.28 35.18 103.53 35.18
  Z
  M 119.5423 28.9731
  A 1.52 0.50 -37.1 0 0 118.0284 29.4912
  A 1.52 0.50 -37.1 0 0 117.1177 30.8069
  A 1.52 0.50 -37.1 0 0 118.6316 30.2888
  A 1.52 0.50 -37.1 0 0 119.5423 28.9731
  Z"
/>
<path fill="#a07556" d="
  M 109.03 32.49
  C 106.91 33.36 106.03 35.18 103.53 35.18
  Q 103.28 35.18 103.28 34.93
  L 103.28 34.58
  A 0.39 0.39 0.0 0 1 103.67 34.20
  Q 105.03 34.23 106.10 33.43
  Q 111.02 29.76 116.01 27.07
  Q 119.38 25.25 116.50 27.77
  C 115.11 28.99 113.21 29.47 111.76 30.80
  Q 110.65 31.82 109.03 32.49
  Z"
/>
<ellipse fill="#a07556" cx="0.00" cy="0.00" transform="translate(118.33,29.89) rotate(-37.1)" rx="1.52" ry="0.50"/>
<path fill="#a07556" d="
  M 124.31 29.74
  Q 124.88 29.82 125.20 30.28
  Q 124.91 30.95 125.33 31.44
  Q 127.11 33.53 129.30 34.27
  C 132.04 35.20 134.07 38.44 135.26 40.84
  Q 135.34 40.99 135.19 41.07
  L 134.93 41.21
  Q 134.81 41.28 134.72 41.17
  L 131.62 37.37
  A 0.76 0.76 0.0 0 0 130.33 37.54
  Q 129.86 38.61 128.30 37.52
  Q 127.39 35.98 124.38 32.12
  Q 123.55 31.06 124.31 29.74
  Z"
/>
<path fill="#e5b59a" d="
  M 125.20 30.28
  C 127.90 31.42 130.97 32.31 133.29 33.62
  Q 140.35 37.60 144.64 44.60
  C 145.44 45.90 146.86 47.13 148.49 47.49
  Q 153.81 48.65 158.61 46.59
  Q 159.79 53.22 158.48 59.81
  Q 148.89 55.81 137.88 54.14
  Q 138.48 53.65 138.30 53.17
  Q 138.52 53.56 138.99 53.77
  Q 139.29 53.90 139.56 53.72
  Q 139.85 53.51 139.68 52.92
  A 0.68 0.65 11.8 0 0 139.43 52.56
  C 137.99 51.51 136.40 51.08 135.16 49.70
  Q 131.66 45.79 126.45 43.16
  Q 125.43 42.64 125.12 41.59
  A 0.62 0.62 0.0 0 1 125.75 40.79
  L 130.26 41.10
  Q 130.64 41.12 130.91 41.41
  Q 131.07 41.58 131.35 41.61
  Q 132.16 41.69 131.52 41.19
  Q 130.47 40.38 130.90 39.02
  Q 130.98 38.74 130.71 38.64
  Q 130.48 38.56 130.28 38.71
  Q 130.10 38.84 130.07 39.06
  Q 129.87 40.21 128.32 39.87
  Q 129.01 39.08 128.30 37.52
  Q 129.86 38.61 130.33 37.54
  A 0.76 0.76 0.0 0 1 131.62 37.37
  L 134.72 41.17
  Q 134.81 41.28 134.93 41.21
  L 135.19 41.07
  Q 135.34 40.99 135.26 40.84
  C 134.07 38.44 132.04 35.20 129.30 34.27
  Q 127.11 33.53 125.33 31.44
  Q 124.91 30.95 125.20 30.28
  Z"
/>
<path fill="#a07556" d="
  M 53.94 46.94
  Q 53.75 49.12 52.62 51.37
  Q 51.74 53.15 52.14 60.39
  Q 46.97 60.91 34.50 61.56
  C 31.96 61.70 30.38 60.87 29.38 58.41
  Q 26.18 50.59 23.92 43.74
  Q 22.99 40.91 22.97 38.61
  Q 22.96 38.02 23.56 38.05
  C 29.42 38.30 35.83 40.57 41.57 42.75
  Q 43.54 43.50 47.80 44.67
  Q 50.91 45.52 53.94 46.94
  Z"
/>
<path fill="#000000" d="
  M 217.61 52.26
  A 0.90 0.89 -88.8 0 0 216.68 53.16
  L 216.73 60.06
  A 0.92 0.92 0.0 0 1 215.81 60.99
  L 213.26 60.99
  A 0.98 0.98 0.0 0 1 212.28 60.01
  L 212.25 39.23
  A 1.08 1.07 0.8 0 1 213.36 38.16
  C 217.01 38.25 222.56 37.67 225.72 39.62
  C 228.88 41.56 229.51 46.34 227.45 49.32
  C 225.13 52.69 221.25 52.41 217.61 52.26
  Z
  M 216.63 42.73
  L 216.73 47.99
  A 1.08 1.08 0.0 0 0 217.83 49.05
  L 220.61 49.00
  A 3.67 3.35 -1.0 0 0 224.23 45.58
  L 224.21 44.86
  A 3.67 3.35 -1.0 0 0 220.49 41.58
  L 217.70 41.63
  A 1.08 1.08 0.0 0 0 216.63 42.73
  Z"
/>
<path fill="#000000" d="
  M 265.23 52.21
  C 262.30 50.65 258.11 51.14 255.76 48.50
  C 253.29 45.72 253.90 41.11 257.36 39.30
  Q 262.47 36.62 268.09 39.39
  Q 269.52 40.09 269.03 41.60
  L 268.93 41.90
  Q 268.32 43.80 266.60 42.79
  Q 262.96 40.66 259.84 42.11
  C 257.60 43.16 258.36 46.27 260.78 46.75
  Q 263.49 47.29 266.05 47.98
  C 272.91 49.84 272.24 59.40 265.47 60.92
  C 262.02 61.69 256.31 61.13 254.09 57.83
  Q 253.73 57.28 253.96 56.67
  Q 254.49 55.25 255.66 54.53
  A 0.75 0.73 -37.2 0 1 256.59 54.65
  Q 260.32 58.55 265.06 56.89
  A 1.42 1.42 0.0 0 0 265.88 56.17
  C 266.49 54.98 266.63 52.96 265.23 52.21
  Z"
/>
<path fill="#000000" d="
  M 282.85 57.37
  C 287.01 56.92 286.78 52.34 282.78 51.49
  Q 280.47 50.99 278.28 50.31
  C 272.33 48.46 272.10 40.72 278.10 38.68
  Q 283.07 37.00 287.82 39.48
  Q 289.35 40.29 288.51 41.80
  L 288.33 42.12
  Q 287.45 43.70 285.92 42.76
  Q 282.70 40.78 279.24 42.18
  A 2.07 2.06 -18.7 0 0 278.02 44.64
  C 279.27 49.12 289.74 45.32 290.21 53.68
  Q 290.54 59.42 285.09 60.85
  Q 279.35 62.36 274.18 58.58
  Q 272.86 57.62 273.73 56.23
  L 274.52 54.98
  Q 275.28 53.79 276.23 54.83
  Q 278.99 57.80 282.85 57.37
  Z"
/>
<path fill="#000000" d="
  M 401.89 51.63
  A 9.54 9.54 0.0 0 1 392.35 61.17
  L 390.59 61.17
  A 9.54 9.54 0.0 0 1 381.05 51.63
  L 381.05 47.65
  A 9.54 9.54 0.0 0 1 390.59 38.11
  L 392.35 38.11
  A 9.54 9.54 0.0 0 1 401.89 47.65
  L 401.89 51.63
  Z
  M 391.4142 57.6800
  A 8.14 6.29 89.9 0 0 397.6900 49.5290
  A 8.14 6.29 89.9 0 0 391.3858 41.4000
  A 8.14 6.29 89.9 0 0 385.1100 49.5510
  A 8.14 6.29 89.9 0 0 391.4142 57.6800
  Z"
/>
<path fill="#000000" d="
  M 426.9268 51.5434
  A 9.57 9.57 0.0 0 1 417.3903 61.1468
  L 415.5703 61.1531
  A 9.57 9.57 0.0 0 1 405.9669 51.6166
  L 405.9532 47.6766
  A 9.57 9.57 0.0 0 1 415.4897 38.0732
  L 417.3097 38.0669
  A 9.57 9.57 0.0 0 1 426.9131 47.6034
  L 426.9268 51.5434
  Z
  M 416.3734 57.6298
  A 8.11 6.23 90.4 0 0 422.6598 49.5635
  A 8.11 6.23 90.4 0 0 416.4866 41.4102
  A 8.11 6.23 90.4 0 0 410.2002 49.4765
  A 8.11 6.23 90.4 0 0 416.3734 57.6298
  Z"
/>
<path fill="#000000" d="
  M 92.45 47.62
  C 88.17 45.26 85.03 49.04 82.82 52.08
  Q 82.80 52.11 82.76 52.09
  L 82.55 51.94
  A 0.25 0.25 0.0 0 1 82.49 51.60
  C 84.18 48.97 87.27 45.39 90.34 46.33
  Q 91.64 46.72 92.21 46.54
  Q 93.22 46.23 93.77 45.17
  Q 99.42 41.75 104.93 38.13
  Q 105.09 38.03 105.19 38.19
  L 105.33 38.41
  Q 105.35 38.44 105.31 38.46
  Q 103.24 39.57 101.33 40.80
  C 99.82 41.76 98.65 43.02 97.00 43.74
  C 95.05 44.58 93.98 46.16 92.45 47.62
  Z"
/>
<path fill="#000000" d="
  M 339.46 46.97
  L 343.53 40.04
  Q 344.44 38.49 346.25 38.46
  L 346.80 38.45
  Q 348.62 38.42 347.80 40.04
  Q 345.27 45.07 342.38 49.78
  C 340.54 52.77 341.15 56.80 341.25 60.13
  Q 341.27 60.90 340.50 60.92
  L 337.66 61.00
  Q 336.79 61.03 336.80 60.16
  L 336.87 53.54
  A 5.62 5.62 0.0 0 0 336.15 50.75
  L 329.89 39.57
  Q 329.09 38.14 330.72 38.33
  L 332.28 38.51
  A 3.13 3.11 77.7 0 1 334.58 40.00
  L 338.78 46.97
  A 0.40 0.40 0.0 0 0 339.46 46.97
  Z"
/>
<path fill="#000000" d="
  M 373.98 48.82
  Q 378.80 51.17 377.18 56.67
  C 375.94 60.83 371.03 61.20 367.40 61.05
  Q 363.64 60.91 360.37 61.05
  Q 359.76 61.08 359.77 60.48
  L 359.84 39.27
  A 1.01 1.01 0.0 0 1 360.87 38.27
  C 364.36 38.33 368.90 37.87 372.26 38.86
  C 375.75 39.89 377.07 44.54 374.37 47.13
  Q 374.00 47.49 373.73 47.93
  Q 373.36 48.52 373.98 48.82
  Z
  M 364.15 42.57
  L 364.11 46.01
  A 1.21 1.21 0.0 0 0 365.31 47.23
  L 368.65 47.27
  A 3.17 2.74 0.6 0 0 371.85 44.56
  L 371.85 44.18
  A 3.17 2.74 0.6 0 0 368.71 41.41
  L 365.37 41.37
  A 1.21 1.21 0.0 0 0 364.15 42.57
  Z
  M 364.09 51.45
  L 364.15 56.49
  A 0.91 0.91 0.0 0 0 365.07 57.39
  L 369.47 57.34
  A 3.63 2.82 -0.6 0 0 373.07 54.48
  L 373.05 53.26
  A 3.63 2.82 -0.6 0 0 369.39 50.48
  L 364.99 50.53
  A 0.91 0.91 0.0 0 0 364.09 51.45
  Z"
/>
<path fill="#000000" d="
  M 436.83 51.23
  A 0.33 0.32 -82.2 0 0 436.43 51.54
  L 436.36 60.56
  A 0.43 0.42 -89.3 0 1 435.94 60.98
  L 432.50 61.01
  Q 431.99 61.01 431.99 60.50
  L 431.99 39.15
  A 0.85 0.84 0.7 0 1 432.86 38.31
  L 435.34 38.39
  Q 436.26 38.42 436.29 39.34
  L 436.47 45.75
  Q 436.54 48.09 438.04 46.29
  L 443.97 39.10
  Q 444.82 38.06 446.16 38.24
  L 447.60 38.43
  Q 448.95 38.60 448.11 39.67
  L 441.32 48.26
  Q 440.77 48.96 441.32 49.66
  L 449.62 60.18
  Q 450.25 60.98 449.23 60.99
  L 445.97 61.01
  Q 445.10 61.01 444.54 60.33
  Q 440.99 55.94 437.63 51.74
  Q 437.32 51.36 436.83 51.23
  Z"
/>
<path fill="#000000" d="
  M 245.29 55.60
  L 237.37 55.58
  A 0.64 0.64 0.0 0 0 236.76 56.02
  L 235.22 60.56
  A 0.64 0.64 0.0 0 1 234.60 60.99
  L 231.56 60.92
  A 0.64 0.64 0.0 0 1 230.97 60.07
  L 238.40 38.94
  A 0.64 0.64 0.0 0 1 239.03 38.51
  L 243.87 38.69
  A 0.64 0.64 0.0 0 1 244.44 39.12
  L 251.90 60.21
  A 0.64 0.64 0.0 0 1 251.27 61.06
  L 247.94 60.95
  A 0.64 0.64 0.0 0 1 247.35 60.50
  L 245.89 56.04
  A 0.64 0.64 0.0 0 0 245.29 55.60
  Z
  M 238.33 51.24
  A 0.61 0.61 0.0 0 0 238.92 52.03
  L 243.81 51.96
  A 0.61 0.61 0.0 0 0 244.38 51.16
  L 241.83 43.53
  A 0.61 0.61 0.0 0 0 240.67 43.55
  L 238.33 51.24
  Z"
/>
<path fill="#000000" d="
  M 306.58 46.53
  Q 306.22 46.76 306.22 47.21
  Q 306.21 53.70 306.26 60.29
  Q 306.27 61.00 305.56 61.00
  L 302.99 61.00
  A 0.76 0.76 0.0 0 1 302.23 60.23
  L 302.45 40.10
  Q 302.46 39.03 303.49 38.76
  Q 307.52 37.69 308.75 40.71
  Q 311.14 46.61 313.48 53.99
  Q 313.55 54.21 313.74 54.36
  Q 314.30 54.80 314.53 54.13
  L 319.68 39.66
  A 1.63 1.62 8.9 0 1 321.17 38.58
  L 324.47 38.48
  Q 325.50 38.45 325.51 39.47
  L 325.74 59.99
  Q 325.75 60.99 324.76 60.98
  L 322.28 60.97
  Q 321.56 60.97 321.56 60.25
  Q 321.54 54.51 321.69 48.73
  Q 321.71 47.66 321.53 47.18
  Q 321.01 45.78 320.51 47.19
  Q 318.13 53.93 315.95 60.37
  A 0.94 0.94 0.0 0 1 315.06 61.00
  L 312.65 61.00
  Q 312.07 61.00 311.89 60.45
  L 307.16 46.73
  A 0.39 0.39 0.0 0 0 306.58 46.53
  Z"
/>
<path fill="#a07556" d="
  M 138.30 53.17
  Q 134.62 51.38 131.86 48.38
  Q 130.03 46.38 128.85 45.60
  C 127.24 44.53 123.33 43.08 124.12 40.61
  Q 124.28 40.08 124.84 40.05
  L 128.32 39.87
  Q 129.87 40.21 130.07 39.06
  Q 130.10 38.84 130.28 38.71
  Q 130.48 38.56 130.71 38.64
  Q 130.98 38.74 130.90 39.02
  Q 130.47 40.38 131.52 41.19
  Q 132.16 41.69 131.35 41.61
  Q 131.07 41.58 130.91 41.41
  Q 130.64 41.12 130.26 41.10
  L 125.75 40.79
  A 0.62 0.62 0.0 0 0 125.12 41.59
  Q 125.43 42.64 126.45 43.16
  Q 131.66 45.79 135.16 49.70
  C 136.40 51.08 137.99 51.51 139.43 52.56
  A 0.68 0.65 11.8 0 1 139.68 52.92
  Q 139.85 53.51 139.56 53.72
  Q 139.29 53.90 138.99 53.77
  Q 138.52 53.56 138.30 53.17
  Z"
/>
<path fill="#a07556" d="
  M 92.75 43.36
  Q 92.72 42.95 92.07 43.04
  L 93.04 41.07
  Q 93.30 40.54 93.41 41.11
  Q 93.61 42.12 92.75 43.36
  Z"
/>
<path fill="#000000" d="
  M 82.62 42.50
  L 92.07 43.04
  Q 92.72 42.95 92.75 43.36
  Q 87.00 44.39 81.47 43.28
  Q 82.69 42.21 82.62 42.50
  Z"
/>
<path fill="#e5b59a" d="
  M 81.47 43.28
  Q 87.00 44.39 92.75 43.36
  Q 92.69 44.28 93.77 45.17
  Q 93.22 46.23 92.21 46.54
  Q 91.64 46.72 90.34 46.33
  C 87.27 45.39 84.18 48.97 82.49 51.60
  A 0.25 0.25 0.0 0 0 82.55 51.94
  L 82.76 52.09
  Q 82.80 52.11 82.82 52.08
  C 85.03 49.04 88.17 45.26 92.45 47.62
  L 93.41 52.12
  C 86.08 54.91 80.31 58.27 71.88 58.88
  Q 61.90 59.59 52.14 60.39
  Q 51.74 53.15 52.62 51.37
  Q 53.75 49.12 53.94 46.94
  Q 64.10 48.66 71.53 48.01
  Q 76.75 47.56 81.47 43.28
  Z"
/>
<path fill="#f9d67f" d="
  M 158.48 59.81
  Q 159.79 53.22 158.61 46.59
  Q 161.77 45.87 165.19 45.73
  Q 169.31 45.57 171.79 45.25
  Q 178.04 44.44 184.13 44.15
  Q 187.31 44.00 188.85 46.78
  Q 192.71 53.75 195.14 60.10
  C 196.36 63.31 193.09 64.26 190.75 64.40
  Q 183.81 64.80 176.49 63.84
  Q 169.20 62.89 158.48 59.81
  Z"
/>
<path fill="#000000" d="
  M 72.81 96.69
  L 71.90 99.61
  A 0.47 0.47 0.0 0 1 71.46 99.94
  L 69.52 99.98
  A 0.47 0.47 0.0 0 1 69.06 99.36
  L 73.98 85.19
  A 0.47 0.47 0.0 0 1 74.42 84.87
  L 77.43 84.86
  A 0.47 0.47 0.0 0 1 77.88 85.18
  L 82.81 99.42
  A 0.47 0.47 0.0 0 1 82.35 100.05
  L 80.29 99.95
  A 0.47 0.47 0.0 0 1 79.87 99.62
  L 78.92 96.69
  A 0.47 0.47 0.0 0 0 78.47 96.37
  L 73.26 96.36
  A 0.47 0.47 0.0 0 0 72.81 96.69
  Z
  M 73.88 93.31
  A 0.52 0.52 0.0 0 0 74.38 93.99
  L 77.31 93.97
  A 0.52 0.52 0.0 0 0 77.80 93.29
  L 76.30 88.84
  A 0.52 0.52 0.0 0 0 75.32 88.85
  L 73.88 93.31
  Z"
/>
<path fill="#000000" d="
  M 89.14 90.65
  Q 88.28 89.59 88.28 90.95
  L 88.27 99.23
  Q 88.27 99.98 87.52 99.99
  L 86.27 100.00
  Q 85.53 100.01 85.53 99.27
  L 85.65 85.43
  Q 85.66 84.77 86.32 84.79
  L 88.24 84.83
  Q 88.80 84.85 89.10 85.32
  L 94.02 93.18
  Q 95.28 95.19 95.33 92.82
  L 95.50 85.52
  Q 95.52 84.81 96.23 84.85
  L 97.16 84.90
  A 1.02 1.01 1.5 0 1 98.13 85.91
  L 98.15 99.07
  Q 98.15 99.65 97.59 99.81
  Q 96.56 100.11 95.62 99.92
  A 1.28 1.27 81.1 0 1 94.72 99.26
  Q 92.20 94.43 89.14 90.65
  Z"
/>
<rect fill="#000000" x="-1.41" y="-7.53" transform="translate(108.76,92.39) rotate(-0.1)" width="2.82" height="15.06" rx="0.73"/>
<path fill="#000000" d="
  M 123.83 93.76
  Q 124.09 90.11 123.86 85.56
  Q 123.83 84.82 124.57 84.83
  L 125.58 84.85
  A 0.98 0.97 -89.7 0 1 126.54 85.83
  L 126.50 99.20
  Q 126.49 99.76 125.95 99.89
  C 124.90 100.16 123.72 99.94 123.12 98.95
  Q 120.44 94.51 117.74 90.31
  Q 116.92 89.02 116.84 90.55
  Q 116.63 94.69 116.85 99.32
  A 0.65 0.65 0.0 0 1 116.19 100.00
  L 114.75 99.99
  Q 114.02 99.98 114.02 99.25
  L 114.03 85.52
  Q 114.03 84.81 114.73 84.84
  L 116.75 84.92
  Q 117.31 84.94 117.62 85.42
  L 123.03 93.96
  Q 123.74 95.09 123.83 93.76
  Z"
/>
<rect fill="#000000" x="-1.39" y="-7.57" transform="translate(132.20,92.42) rotate(-0.4)" width="2.78" height="15.14" rx="0.85"/>
<rect fill="#000000" x="-1.30" y="-7.57" transform="translate(151.97,92.44) rotate(0.1)" width="2.60" height="15.14" rx="0.56"/>
<path fill="#000000" d="
  M 165.25 96.27
  L 160.53 96.35
  A 0.99 0.99 0.0 0 0 159.60 97.09
  L 158.96 99.56
  Q 158.85 99.97 158.43 99.97
  L 156.44 99.99
  A 0.41 0.41 0.0 0 1 156.05 99.44
  L 160.78 85.75
  A 1.15 1.14 2.3 0 1 161.60 85.00
  Q 163.05 84.62 164.40 85.00
  Q 164.86 85.13 165.02 85.58
  L 169.72 99.28
  A 0.55 0.55 0.0 0 1 169.20 100.00
  L 167.79 99.98
  Q 167.06 99.98 166.84 99.27
  L 166.13 96.91
  A 0.91 0.91 0.0 0 0 165.25 96.27
  Z
  M 160.89 93.21
  A 0.59 0.59 0.0 0 0 161.45 93.99
  L 164.32 93.98
  A 0.59 0.59 0.0 0 0 164.87 93.20
  L 163.43 88.90
  A 0.59 0.59 0.0 0 0 162.32 88.91
  L 160.89 93.21
  Z"
/>
<rect fill="#000000" x="-1.38" y="-7.59" transform="translate(186.21,92.36) rotate(0.2)" width="2.76" height="15.18" rx="0.82"/>
<path fill="#000000" d="
  M 196.94 95.54
  A 0.47 0.47 0.0 0 0 197.57 95.25
  L 200.52 85.99
  Q 200.88 84.87 202.06 84.81
  L 202.73 84.77
  Q 203.85 84.71 203.49 85.78
  L 198.93 99.28
  Q 198.69 100.00 197.94 99.99
  L 196.03 99.97
  Q 195.30 99.96 195.07 99.27
  L 190.48 85.77
  Q 190.10 84.66 191.27 84.76
  L 192.40 84.86
  A 1.15 1.15 0.0 0 1 193.39 85.66
  Q 194.88 90.27 196.51 95.08
  Q 196.62 95.41 196.94 95.54
  Z"
/>
<path fill="#000000" d="
  M 209.62 90.96
  L 214.79 90.89
  A 0.48 0.48 0.0 0 1 215.28 91.36
  L 215.31 92.74
  A 0.48 0.48 0.0 0 1 214.83 93.23
  L 209.65 93.21
  A 0.48 0.48 0.0 0 0 209.17 93.69
  L 209.19 97.04
  A 0.48 0.48 0.0 0 0 209.66 97.52
  L 215.91 97.61
  A 0.48 0.48 0.0 0 1 216.38 98.10
  L 216.36 99.53
  A 0.48 0.48 0.0 0 1 215.88 100.00
  L 206.86 99.99
  A 0.48 0.48 0.0 0 1 206.38 99.51
  L 206.40 85.32
  A 0.48 0.48 0.0 0 1 206.88 84.84
  L 215.78 84.83
  A 0.48 0.48 0.0 0 1 216.26 85.31
  L 216.26 86.73
  A 0.48 0.48 0.0 0 1 215.78 87.21
  L 209.64 87.20
  A 0.48 0.48 0.0 0 0 209.16 87.68
  L 209.13 90.48
  A 0.48 0.48 0.0 0 0 209.62 90.96
  Z"
/>
<path fill="#000000" d="
  M 223.00 86.68
  L 222.99 85.42
  A 0.53 0.53 0.0 0 1 223.51 84.89
  L 234.01 84.83
  A 0.53 0.53 0.0 0 1 234.54 85.35
  L 234.57 86.72
  A 0.53 0.53 0.0 0 1 234.03 87.26
  L 230.78 87.18
  A 0.53 0.53 0.0 0 0 230.24 87.71
  L 230.25 99.44
  A 0.53 0.53 0.0 0 1 229.72 99.97
  L 227.99 99.98
  A 0.53 0.53 0.0 0 1 227.46 99.45
  L 227.43 87.76
  A 0.53 0.53 0.0 0 0 226.90 87.23
  L 223.53 87.20
  A 0.53 0.53 0.0 0 1 223.00 86.68
  Z"
/>
<path fill="#000000" d="
  M 250.1629 93.8060
  A 6.30 6.30 0.0 0 1 243.8300 100.0729
  L 242.6700 100.0669
  A 6.30 6.30 0.0 0 1 236.4031 93.7340
  L 236.4171 91.0540
  A 6.30 6.30 0.0 0 1 242.7500 84.7871
  L 243.9100 84.7931
  A 6.30 6.30 0.0 0 1 250.1769 91.1260
  L 250.1629 93.8060
  Z
  M 247.27 90.81
  A 3.67 3.67 0.0 0 0 243.60 87.14
  L 242.98 87.14
  A 3.67 3.67 0.0 0 0 239.31 90.81
  L 239.31 93.99
  A 3.67 3.67 0.0 0 0 242.98 97.66
  L 243.60 97.66
  A 3.67 3.67 0.0 0 0 247.27 93.99
  L 247.27 90.81
  Z"
/>
<path fill="#000000" d="
  M 262.25 90.58
  L 268.10 90.62
  A 0.55 0.55 0.0 0 0 268.65 90.07
  L 268.70 85.33
  A 0.55 0.55 0.0 0 1 269.25 84.78
  L 270.91 84.78
  A 0.55 0.55 0.0 0 1 271.46 85.33
  L 271.47 99.41
  A 0.55 0.55 0.0 0 1 270.94 99.96
  L 269.27 100.02
  A 0.55 0.55 0.0 0 1 268.70 99.47
  L 268.72 93.57
  A 0.55 0.55 0.0 0 0 268.17 93.02
  L 262.22 93.05
  A 0.55 0.55 0.0 0 0 261.68 93.59
  L 261.63 99.45
  A 0.55 0.55 0.0 0 1 261.09 99.99
  L 259.36 100.00
  A 0.55 0.55 0.0 0 1 258.81 99.45
  L 258.84 85.38
  A 0.55 0.55 0.0 0 1 259.36 84.84
  L 261.04 84.76
  A 0.55 0.55 0.0 0 1 261.62 85.30
  L 261.70 90.04
  A 0.55 0.55 0.0 0 0 262.25 90.58
  Z"
/>
<path fill="#000000" d="
  M 278.40 93.77
  L 278.44 97.04
  A 0.53 0.53 0.0 0 0 278.97 97.57
  L 285.13 97.57
  A 0.53 0.53 0.0 0 1 285.66 98.09
  L 285.70 99.47
  A 0.53 0.53 0.0 0 1 285.16 100.02
  L 276.10 99.97
  A 0.53 0.53 0.0 0 1 275.57 99.44
  L 275.61 85.38
  A 0.53 0.53 0.0 0 1 276.14 84.85
  L 284.96 84.82
  A 0.53 0.53 0.0 0 1 285.49 85.34
  L 285.52 86.69
  A 0.53 0.53 0.0 0 1 284.99 87.23
  L 278.97 87.23
  A 0.53 0.53 0.0 0 0 278.44 87.74
  L 278.35 90.33
  A 0.53 0.53 0.0 0 0 278.88 90.88
  L 284.09 90.92
  A 0.53 0.53 0.0 0 1 284.62 91.45
  L 284.62 92.72
  A 0.53 0.53 0.0 0 1 284.09 93.25
  L 278.94 93.23
  A 0.53 0.53 0.0 0 0 278.40 93.77
  Z"
/>
<path fill="#000000" d="
  M 291.96 97.50
  L 297.81 97.55
  A 0.50 0.50 0.0 0 1 298.31 98.07
  L 298.27 99.51
  A 0.50 0.50 0.0 0 1 297.77 100.00
  L 289.07 100.00
  A 0.50 0.50 0.0 0 1 288.57 99.50
  L 288.60 85.31
  A 0.50 0.50 0.0 0 1 289.09 84.81
  L 290.83 84.78
  A 0.50 0.50 0.0 0 1 291.34 85.27
  L 291.46 97.00
  A 0.50 0.50 0.0 0 0 291.96 97.50
  Z"
/>
<path fill="#000000" d="
  M 303.62 95.25
  L 303.56 99.22
  Q 303.54 99.99 302.78 100.00
  L 301.68 100.02
  Q 300.81 100.04 300.81 99.18
  L 300.83 85.45
  A 0.65 0.65 0.0 0 1 301.52 84.80
  C 305.13 84.99 311.73 83.70 311.63 89.64
  C 311.56 93.49 308.16 94.69 304.88 94.18
  Q 303.64 93.99 303.62 95.25
  Z
  M 303.71 87.51
  L 303.69 91.55
  A 0.41 0.41 0.0 0 0 304.09 91.97
  L 306.54 91.98
  A 2.24 2.06 0.4 0 0 308.80 89.94
  L 308.80 89.20
  A 2.24 2.06 0.4 0 0 306.58 87.12
  L 304.13 87.11
  A 0.41 0.41 0.0 0 0 303.71 87.51
  Z"
/>
<path fill="#000000" d="
  M 322.90 87.31
  C 321.23 87.76 321.45 89.86 323.01 90.37
  C 325.56 91.21 329.30 91.11 329.81 94.65
  C 330.73 101.14 322.82 101.13 319.25 98.35
  Q 318.21 97.54 319.12 96.58
  L 319.49 96.19
  Q 320.22 95.42 320.95 96.19
  Q 322.80 98.16 325.53 97.55
  A 1.87 1.86 -14.1 0 0 326.92 95.24
  Q 326.60 94.10 325.34 93.79
  Q 323.49 93.34 321.74 92.82
  C 319.11 92.04 318.06 88.77 319.67 86.60
  C 321.70 83.86 326.41 84.35 328.84 85.92
  Q 329.57 86.39 329.00 87.05
  L 328.31 87.84
  Q 327.79 88.43 327.16 87.97
  Q 325.37 86.65 322.90 87.31
  Z"
/>
<path fill="#000000" d="
  M 335.38 87.21
  L 332.07 87.24
  A 0.54 0.54 0.0 0 1 331.52 86.71
  L 331.50 85.37
  A 0.54 0.54 0.0 0 1 332.04 84.82
  L 342.62 84.84
  A 0.54 0.54 0.0 0 1 343.16 85.41
  L 343.10 86.73
  A 0.54 0.54 0.0 0 1 342.55 87.24
  L 339.32 87.19
  A 0.54 0.54 0.0 0 0 338.78 87.73
  L 338.69 99.41
  A 0.54 0.54 0.0 0 1 338.16 99.95
  L 336.49 99.98
  A 0.54 0.54 0.0 0 1 335.94 99.44
  L 335.93 87.75
  A 0.54 0.54 0.0 0 0 335.38 87.21
  Z"
/>
<path fill="#000000" d="
  M 350.96 97.67
  L 351.45 97.73
  Q 354.94 98.12 354.93 94.62
  L 354.89 85.46
  A 0.68 0.67 -0.4 0 1 355.56 84.79
  L 357.01 84.78
  Q 357.65 84.78 357.66 85.41
  Q 357.74 89.65 357.66 94.57
  C 357.54 102.22 345.84 101.82 345.58 95.30
  Q 345.40 90.64 345.54 85.26
  Q 345.55 84.81 346.00 84.80
  L 347.77 84.79
  Q 348.25 84.78 348.25 85.27
  L 348.25 94.65
  Q 348.26 97.37 350.96 97.67
  Z"
/>
<path fill="#000000" d="
  M 361.82 85.34
  A 0.50 0.50 0.0 0 1 362.31 84.84
  L 367.65 84.82
  A 7.06 6.79 -0.2 0 1 374.74 91.59
  L 374.74 93.15
  A 7.06 6.79 -0.2 0 1 367.71 99.96
  L 362.37 99.98
  A 0.50 0.50 0.0 0 1 361.86 99.48
  L 361.82 85.34
  Z
  M 364.67 87.87
  L 364.69 96.91
  A 0.67 0.67 0.0 0 0 365.36 97.58
  L 367.57 97.57
  A 4.35 4.24 89.9 0 0 371.80 93.21
  L 371.80 91.53
  A 4.35 4.24 89.9 0 0 367.55 87.19
  L 365.34 87.20
  A 0.67 0.67 0.0 0 0 364.67 87.87
  Z"
/>
<path fill="#000000" d="
  M 381.46 90.95
  L 386.64 90.88
  A 0.48 0.48 0.0 0 1 387.13 91.37
  L 387.11 92.77
  A 0.48 0.48 0.0 0 1 386.62 93.25
  L 381.46 93.21
  A 0.48 0.48 0.0 0 0 380.97 93.70
  L 381.01 97.08
  A 0.48 0.48 0.0 0 0 381.48 97.55
  L 387.70 97.59
  A 0.48 0.48 0.0 0 1 388.18 98.05
  L 388.24 99.49
  A 0.48 0.48 0.0 0 1 387.76 99.99
  L 378.49 100.00
  A 0.48 0.48 0.0 0 1 378.01 99.52
  L 378.00 85.30
  A 0.48 0.48 0.0 0 1 378.48 84.82
  L 387.57 84.84
  A 0.48 0.48 0.0 0 1 388.05 85.33
  L 388.01 86.75
  A 0.48 0.48 0.0 0 1 387.53 87.22
  L 381.47 87.20
  A 0.48 0.48 0.0 0 0 380.99 87.68
  L 380.97 90.47
  A 0.48 0.48 0.0 0 0 381.46 90.95
  Z"
/>
<path fill="#000000" d="
  M 400.82 93.51
  Q 401.06 89.56 400.85 85.43
  Q 400.81 84.77 401.47 84.78
  L 403.03 84.80
  A 0.67 0.67 0.0 0 1 403.69 85.47
  L 403.60 99.22
  Q 403.60 99.84 402.99 99.96
  C 401.99 100.14 400.79 100.14 400.17 99.13
  Q 397.46 94.66 394.89 90.50
  Q 393.77 88.69 393.78 90.81
  L 393.84 99.33
  Q 393.85 100.00 393.18 100.00
  L 391.50 100.00
  Q 391.00 100.00 391.00 99.50
  L 391.02 85.51
  Q 391.02 84.78 391.74 84.80
  L 393.78 84.84
  Q 394.37 84.85 394.68 85.35
  L 399.94 93.74
  Q 400.73 95.00 400.82 93.51
  Z"
/>
<path fill="#000000" d="
  M 406.26 86.69
  L 406.25 85.40
  A 0.53 0.53 0.0 0 1 406.78 84.87
  L 417.38 84.86
  A 0.53 0.53 0.0 0 1 417.91 85.38
  L 417.95 86.69
  A 0.53 0.53 0.0 0 1 417.42 87.23
  L 414.02 87.22
  A 0.53 0.53 0.0 0 0 413.49 87.75
  L 413.47 99.46
  A 0.53 0.53 0.0 0 1 412.94 99.99
  L 411.23 100.01
  A 0.53 0.53 0.0 0 1 410.70 99.48
  L 410.70 87.78
  A 0.53 0.53 0.0 0 0 410.17 87.25
  L 406.78 87.21
  A 0.53 0.53 0.0 0 1 406.26 86.69
  Z"
/>
<path fill="#000000" d="
  M 422.23 89.02
  A 1.32 1.32 0.0 0 0 423.28 90.38
  C 425.67 90.87 429.69 91.29 430.22 94.32
  C 431.44 101.30 423.05 101.31 419.42 98.07
  A 0.79 0.79 0.0 0 1 419.31 97.01
  L 420.33 95.66
  Q 420.60 95.31 420.87 95.65
  Q 423.04 98.26 426.11 97.51
  A 1.80 1.80 0.0 0 0 427.23 94.84
  C 426.38 93.40 423.38 93.29 421.86 92.68
  C 419.66 91.79 418.88 89.03 419.91 87.02
  C 421.52 83.88 426.58 84.32 429.04 85.72
  Q 429.99 86.26 429.36 87.15
  L 428.93 87.76
  Q 428.39 88.53 427.65 87.94
  C 426.38 86.92 422.39 86.30 422.23 89.02
  Z"
/>
<path fill="#000000" d="
  M 139.69 87.17
  L 137.00 87.20
  A 0.71 0.71 0.0 0 1 136.28 86.50
  L 136.26 85.72
  A 0.77 0.77 0.0 0 1 137.03 84.94
  L 147.06 84.91
  A 0.94 0.93 -3.5 0 1 147.99 85.73
  Q 148.04 86.07 147.97 86.41
  Q 147.82 87.14 147.08 87.13
  L 144.87 87.11
  A 1.51 1.50 -0.2 0 0 143.35 88.63
  L 143.48 99.13
  A 0.86 0.85 -0.3 0 1 142.62 99.99
  L 141.48 100.00
  Q 140.71 100.00 140.71 99.23
  L 140.71 88.19
  A 1.02 1.01 89.7 0 0 139.69 87.17
  Z"
/>
<path fill="#000000" d="
  M 178.01 87.58
  L 178.06 99.55
  A 0.44 0.44 0.0 0 1 177.62 99.99
  L 175.53 100.00
  A 0.44 0.44 0.0 0 1 175.09 99.56
  L 175.14 87.66
  A 0.44 0.44 0.0 0 0 174.72 87.22
  L 171.25 87.08
  A 0.44 0.44 0.0 0 1 170.83 86.63
  L 170.86 85.44
  A 0.44 0.44 0.0 0 1 171.30 85.01
  L 181.83 84.90
  A 0.44 0.44 0.0 0 1 182.27 85.37
  L 182.19 86.66
  A 0.44 0.44 0.0 0 1 181.76 87.08
  L 178.44 87.14
  A 0.44 0.44 0.0 0 0 178.01 87.58
  Z"
/>
</svg>
