<?xml version="1.0" encoding="UTF-8" standalone="no"?>
<!DOCTYPE svg PUBLIC "-//W3C//DTD SVG 1.1//EN" "http://www.w3.org/Graphics/SVG/1.1/DTD/svg11.dtd">
<svg xmlns="http://www.w3.org/2000/svg" version="1.1" viewBox="0.00 0.00 500.00 500.00">
<g stroke-width="2.00" fill="none" stroke-linecap="butt">
<path stroke="#52626c" vector-effect="non-scaling-stroke" d="
  M 124.35 199.54
  Q 124.40 200.07 124.18 200.76
  Q 124.02 201.23 124.32 201.62
  L 129.18 208.14"
/>
<path stroke="#c5bdb8" vector-effect="non-scaling-stroke" d="
  M 129.18 208.14
  Q 130.50 208.20 129.97 209.05"
/>
<path stroke="#52626c" vector-effect="non-scaling-stroke" d="
  M 129.97 209.05
  Q 130.38 209.66 128.96 209.88
  Q 127.00 210.18 125.15 210.04
  A 1.03 1.03 0.0 0 0 124.04 211.19
  Q 124.26 213.10 126.13 213.94
  Q 130.11 215.71 132.86 219.10
  C 134.35 220.94 136.35 221.77 138.32 222.94"
/>
<path stroke="#c5bdb8" vector-effect="non-scaling-stroke" d="
  M 138.32 222.94
  Q 138.39 223.27 138.36 223.48
  Q 138.32 223.73 138.07 223.78
  Q 137.92 223.81 137.77 223.83"
/>
<path stroke="#c5bdb8" vector-effect="non-scaling-stroke" d="
  M 93.49 221.95
  L 92.41 217.75"
/>
<path stroke="#52626c" vector-effect="non-scaling-stroke" d="
  M 92.41 217.75
  L 95.24 214.59
  Q 95.58 214.21 96.08 214.08
  Q 98.19 213.53 99.63 211.97
  Q 99.87 211.72 99.55 211.85
  Q 95.93 213.34 92.95 216.10"
/>
<path stroke="#c5bdb8" vector-effect="non-scaling-stroke" d="
  M 92.95 216.10
  Q 90.76 215.27 91.90 213.71"
/>
<path stroke="#52626c" vector-effect="non-scaling-stroke" d="
  M 91.90 213.71
  L 92.52 213.62"
/>
<path stroke="#a29d97" vector-effect="non-scaling-stroke" d="
  M 92.52 213.62
  L 92.87 213.65
  Q 93.38 213.69 93.33 213.19
  Q 93.23 211.98 93.70 210.86
  A 0.42 0.41 -52.7 0 0 93.65 210.47
  Q 93.41 210.18 93.20 210.27
  Q 92.79 210.44 92.90 210.87
  Q 93.21 212.17 91.97 213.02"
/>
<path stroke="#52626c" vector-effect="non-scaling-stroke" d="
  M 91.97 213.02
  Q 87.68 212.94 83.25 212.96
  Q 82.37 212.96 82.69 212.19"
/>
<path stroke="#f0c68b" vector-effect="non-scaling-stroke" d="
  M 158.09 216.94
  Q 160.17 223.11 158.45 229.53"
/>
<path stroke="#735b4c" vector-effect="non-scaling-stroke" d="
  M 138.32 222.94
  Q 138.79 223.40 138.82 223.40
  Q 140.04 223.42 139.14 222.58
  Q 138.24 221.75 136.98 221.42
  A 2.07 2.07 0.0 0 1 135.89 220.72
  Q 132.26 216.23 126.06 213.12
  Q 124.86 212.51 125.00 211.24
  Q 125.07 210.66 125.64 210.65
  Q 128.65 210.58 131.07 211.27
  Q 131.70 211.45 131.13 211.13
  Q 131.01 211.07 130.93 210.96
  Q 130.64 210.56 130.68 210.07
  Q 130.78 208.84 129.97 209.05"
/>
<path stroke="#735b4c" vector-effect="non-scaling-stroke" d="
  M 92.41 217.75
  C 87.65 214.92 86.01 219.10 82.95 221.68
  Q 82.12 222.38 82.65 221.43
  C 83.71 219.55 87.05 215.65 89.49 216.17
  Q 90.26 216.33 91.00 216.58
  C 91.84 216.86 92.36 216.66 92.95 216.10"
/>
<path stroke="#503b2b" vector-effect="non-scaling-stroke" d="
  M 92.52 213.62
  L 92.61 213.36
  Q 92.71 213.09 92.42 213.12
  Q 92.21 213.14 91.97 213.02"
/>
<path stroke="#735b4c" vector-effect="non-scaling-stroke" d="
  M 125.24 200.19
  Q 124.95 200.13 124.79 200.23
  Q 124.51 200.40 124.69 200.67
  Q 126.95 204.11 130.59 204.93
  A 1.52 1.52 0.0 0 1 131.48 205.50
  Q 133.34 207.93 135.09 210.32
  Q 135.13 210.37 135.08 210.41
  L 134.86 210.56
  Q 134.75 210.65 134.65 210.55
  L 131.02 206.82
  Q 130.55 206.34 130.37 206.98
  Q 130.06 208.08 129.18 208.14"
/>
<path stroke="#735b4c" vector-effect="non-scaling-stroke" d="
  M 91.90 213.71
  Q 88.67 213.52 85.25 213.90
  Q 84.12 214.03 81.56 213.07"
/>
<path stroke="#c39577" vector-effect="non-scaling-stroke" d="
  M 53.78 216.81
  L 51.77 230.28"
/>
<path stroke="#52626c" vector-effect="non-scaling-stroke" d="
  M 117.4287 196.4624
  A 0.27 0.27 0.0 0 0 117.0564 196.3778
  L 103.7373 204.7653
  A 0.27 0.27 0.0 0 0 103.6527 205.1376
  L 103.7913 205.3576
  A 0.27 0.27 0.0 0 0 104.1636 205.4422
  L 117.4827 197.0547
  A 0.27 0.27 0.0 0 0 117.5673 196.6824
  L 117.4287 196.4624"
/>
<path stroke="#52626c" vector-effect="non-scaling-stroke" d="
  M 116.61 201.04
  Q 118.63 200.62 119.67 199.15
  Q 119.69 199.12 119.66 199.10
  Q 119.53 199.02 119.41 198.93
  Q 119.23 198.78 119.05 198.92
  L 116.43 200.99
  A 1.01 0.98 -61.7 0 1 115.73 201.21
  Q 115.27 201.18 114.93 201.43
  Q 114.15 202.02 115.09 201.76
  Q 115.56 201.64 115.94 201.34
  A 1.59 1.58 -68.9 0 1 116.61 201.04"
/>
<path stroke="#503b2b" vector-effect="non-scaling-stroke" d="
  M 45.5584 216.8164
  A 0.24 0.24 0.0 0 0 45.3741 216.5314
  L 45.3545 216.5272
  A 0.24 0.24 0.0 0 0 45.0696 216.7116
  L 42.5416 228.5036
  A 0.24 0.24 0.0 0 0 42.7259 228.7886
  L 42.7455 228.7928
  A 0.24 0.24 0.0 0 0 43.0304 228.6084
  L 45.5584 216.8164"
/>
</g>
<path fill="#a3c4d7" d="
  M 124.35 199.54
  Q 124.40 200.07 124.18 200.76
  Q 124.02 201.23 124.32 201.62
  L 129.18 208.14
  Q 130.50 208.20 129.97 209.05
  Q 130.38 209.66 128.96 209.88
  Q 127.00 210.18 125.15 210.04
  A 1.03 1.03 0.0 0 0 124.04 211.19
  Q 124.26 213.10 126.13 213.94
  Q 130.11 215.71 132.86 219.10
  C 134.35 220.94 136.35 221.77 138.32 222.94
  Q 138.39 223.27 138.36 223.48
  Q 138.32 223.73 138.07 223.78
  Q 137.92 223.81 137.77 223.83
  Q 136.44 223.42 135.76 223.79
  Q 131.61 226.02 126.18 230.14
  Q 120.51 234.45 114.48 238.61
  C 112.64 239.88 110.44 241.28 108.50 238.99
  Q 101.78 231.06 95.23 222.78
  Q 94.60 221.98 93.49 221.95
  L 92.41 217.75
  L 95.24 214.59
  Q 95.58 214.21 96.08 214.08
  Q 98.19 213.53 99.63 211.97
  Q 99.87 211.72 99.55 211.85
  Q 95.93 213.34 92.95 216.10
  Q 90.76 215.27 91.90 213.71
  L 92.52 213.62
  L 92.87 213.65
  Q 93.38 213.69 93.33 213.19
  Q 93.23 211.98 93.70 210.86
  A 0.42 0.41 -52.7 0 0 93.65 210.47
  Q 93.41 210.18 93.20 210.27
  Q 92.79 210.44 92.90 210.87
  Q 93.21 212.17 91.97 213.02
  Q 87.68 212.94 83.25 212.96
  Q 82.37 212.96 82.69 212.19
  Q 83.77 211.35 85.25 211.38
  A 0.68 0.68 0.0 0 0 85.80 210.28
  C 83.87 207.78 80.58 204.30 84.13 201.38
  Q 92.80 194.26 107.40 183.93
  Q 109.61 182.37 111.37 184.42
  L 124.35 199.54
  Z
  M 117.4287 196.4624
  A 0.27 0.27 0.0 0 0 117.0564 196.3778
  L 103.7373 204.7653
  A 0.27 0.27 0.0 0 0 103.6527 205.1376
  L 103.7913 205.3576
  A 0.27 0.27 0.0 0 0 104.1636 205.4422
  L 117.4827 197.0547
  A 0.27 0.27 0.0 0 0 117.5673 196.6824
  L 117.4287 196.4624
  Z
  M 116.61 201.04
  Q 118.63 200.62 119.67 199.15
  Q 119.69 199.12 119.66 199.10
  Q 119.53 199.02 119.41 198.93
  Q 119.23 198.78 119.05 198.92
  L 116.43 200.99
  A 1.01 0.98 -61.7 0 1 115.73 201.21
  Q 115.27 201.18 114.93 201.43
  Q 114.15 202.02 115.09 201.76
  Q 115.56 201.64 115.94 201.34
  A 1.59 1.58 -68.9 0 1 116.61 201.04
  Z"
/>
<rect fill="#000000" x="-8.14" y="-0.40" transform="translate(110.61,200.91) rotate(-32.2)" width="16.28" height="0.80" rx="0.27"/>
<path fill="#000000" d="
  M 115.94 201.34
  Q 115.56 201.64 115.09 201.76
  Q 114.15 202.02 114.93 201.43
  Q 115.27 201.18 115.73 201.21
  A 1.01 0.98 -61.7 0 0 116.43 200.99
  L 119.05 198.92
  Q 119.23 198.78 119.41 198.93
  Q 119.53 199.02 119.66 199.10
  Q 119.69 199.12 119.67 199.15
  Q 118.63 200.62 116.61 201.04
  A 1.59 1.58 -68.9 0 0 115.94 201.34
  Z"
/>
<path fill="#000000" d="
  M 124.35 199.54
  L 125.24 200.19
  Q 124.95 200.13 124.79 200.23
  Q 124.51 200.40 124.69 200.67
  Q 126.95 204.11 130.59 204.93
  A 1.52 1.52 0.0 0 1 131.48 205.50
  Q 133.34 207.93 135.09 210.32
  Q 135.13 210.37 135.08 210.41
  L 134.86 210.56
  Q 134.75 210.65 134.65 210.55
  L 131.02 206.82
  Q 130.55 206.34 130.37 206.98
  Q 130.06 208.08 129.18 208.14
  L 124.32 201.62
  Q 124.02 201.23 124.18 200.76
  Q 124.40 200.07 124.35 199.54
  Z"
/>
<path fill="#e6b598" d="
  M 125.24 200.19
  Q 125.96 200.72 126.75 200.93
  Q 138.63 204.00 144.62 214.64
  C 145.38 216.00 146.83 217.12 148.44 217.51
  Q 153.43 218.74 158.09 216.94
  Q 160.17 223.11 158.45 229.53
  Q 149.93 226.02 140.75 224.75
  Q 140.08 224.66 137.77 223.83
  Q 137.92 223.81 138.07 223.78
  Q 138.32 223.73 138.36 223.48
  Q 138.39 223.27 138.32 222.94
  Q 138.79 223.40 138.82 223.40
  Q 140.04 223.42 139.14 222.58
  Q 138.24 221.75 136.98 221.42
  A 2.07 2.07 0.0 0 1 135.89 220.72
  Q 132.26 216.23 126.06 213.12
  Q 124.86 212.51 125.00 211.24
  Q 125.07 210.66 125.64 210.65
  Q 128.65 210.58 131.07 211.27
  Q 131.70 211.45 131.13 211.13
  Q 131.01 211.07 130.93 210.96
  Q 130.64 210.56 130.68 210.07
  Q 130.78 208.84 129.97 209.05
  Q 130.50 208.20 129.18 208.14
  Q 130.06 208.08 130.37 206.98
  Q 130.55 206.34 131.02 206.82
  L 134.65 210.55
  Q 134.75 210.65 134.86 210.56
  L 135.08 210.41
  Q 135.13 210.37 135.09 210.32
  Q 133.34 207.93 131.48 205.50
  A 1.52 1.52 0.0 0 0 130.59 204.93
  Q 126.95 204.11 124.69 200.67
  Q 124.51 200.40 124.79 200.23
  Q 124.95 200.13 125.24 200.19
  Z"
/>
<path fill="#a07556" d="
  M 53.78 216.81
  L 51.77 230.28
  Q 43.57 231.11 35.23 231.60
  Q 31.47 231.82 30.52 230.40
  Q 29.19 228.40 28.20 225.83
  Q 25.22 218.14 23.06 211.17
  Q 22.63 209.77 22.82 208.33
  A 0.65 0.65 0.0 0 1 23.55 207.77
  Q 32.08 209.04 40.18 212.18
  Q 43.36 213.41 47.12 214.46
  Q 50.54 215.42 53.78 216.81
  Z
  M 45.5584 216.8164
  A 0.24 0.24 0.0 0 0 45.3741 216.5314
  L 45.3545 216.5272
  A 0.24 0.24 0.0 0 0 45.0696 216.7116
  L 42.5416 228.5036
  A 0.24 0.24 0.0 0 0 42.7259 228.7886
  L 42.7455 228.7928
  A 0.24 0.24 0.0 0 0 43.0304 228.6084
  L 45.5584 216.8164
  Z"
/>
<path fill="#000000" d="
  M 216.71 223.22
  L 216.77 229.73
  Q 216.79 230.99 215.52 230.99
  L 213.49 230.99
  Q 212.25 230.99 212.25 229.74
  L 212.27 209.33
  Q 212.28 208.15 213.46 208.15
  Q 217.79 208.15 221.75 208.36
  C 227.43 208.66 230.20 213.70 227.91 218.61
  C 226.03 222.66 221.55 222.50 217.67 222.30
  Q 216.70 222.25 216.71 223.22
  Z
  M 216.67 212.38
  L 216.73 218.28
  A 0.70 0.70 0.0 0 0 217.44 218.97
  L 220.86 218.94
  A 3.40 3.28 -0.6 0 0 224.22 215.62
  L 224.22 214.88
  A 3.40 3.28 -0.6 0 0 220.78 211.64
  L 217.36 211.67
  A 0.70 0.70 0.0 0 0 216.67 212.38
  Z"
/>
<path fill="#000000" d="
  M 269.13 211.56
  L 268.38 212.69
  Q 267.74 213.63 266.80 212.99
  C 264.90 211.70 259.76 210.39 258.66 213.46
  C 258.02 215.25 259.44 216.56 261.07 216.84
  C 266.48 217.76 271.99 219.06 270.53 226.30
  C 270.13 228.29 268.43 229.99 266.53 230.58
  Q 259.58 232.74 254.30 228.21
  Q 253.38 227.43 254.12 226.46
  L 255.44 224.72
  Q 256.00 224.00 256.61 224.68
  Q 259.69 228.09 264.13 227.24
  C 267.12 226.66 267.16 222.56 264.03 221.73
  C 259.56 220.55 254.13 220.16 254.29 214.04
  C 254.33 212.10 255.48 210.34 257.15 209.41
  Q 262.68 206.34 268.70 209.74
  Q 269.90 210.42 269.13 211.56
  Z"
/>
<path fill="#000000" d="
  M 278.69 212.57
  C 277.20 213.90 278.24 216.10 279.98 216.60
  C 282.58 217.34 285.67 217.53 287.88 219.14
  C 291.50 221.79 291.12 228.40 286.64 230.33
  C 283.14 231.84 275.98 231.67 273.53 227.67
  A 1.06 1.05 -48.8 0 1 273.47 226.67
  Q 274.08 225.39 275.16 224.57
  A 0.74 0.73 -39.1 0 1 276.16 224.67
  Q 279.11 228.04 283.54 227.21
  C 287.00 226.56 286.47 222.35 283.17 221.61
  Q 280.48 221.00 277.99 220.23
  C 272.31 218.48 272.27 210.81 277.89 208.73
  Q 282.65 206.98 287.83 209.41
  Q 289.50 210.19 288.53 211.76
  L 288.21 212.28
  Q 287.36 213.66 285.98 212.79
  C 284.18 211.65 280.54 210.92 278.69 212.57
  Z"
/>
<path fill="#000000" d="
  M 401.91 221.62
  A 9.57 9.57 0.0 0 1 392.34 231.19
  L 390.58 231.19
  A 9.57 9.57 0.0 0 1 381.01 221.62
  L 381.01 217.64
  A 9.57 9.57 0.0 0 1 390.58 208.07
  L 392.34 208.07
  A 9.57 9.57 0.0 0 1 401.91 217.64
  L 401.91 221.62
  Z
  M 391.3717 227.6300
  A 8.10 6.26 90.2 0 0 397.6600 219.5519
  A 8.10 6.26 90.2 0 0 391.4283 211.4300
  A 8.10 6.26 90.2 0 0 385.1400 219.5081
  A 8.10 6.26 90.2 0 0 391.3717 227.6300
  Z"
/>
<path fill="#000000" d="
  M 426.9368 221.5434
  A 9.58 9.58 0.0 0 1 417.3903 231.1568
  L 415.5904 231.1631
  A 9.58 9.58 0.0 0 1 405.9770 221.6166
  L 405.9632 217.6566
  A 9.58 9.58 0.0 0 1 415.5097 208.0432
  L 417.3096 208.0369
  A 9.58 9.58 0.0 0 1 426.9230 217.5834
  L 426.9368 221.5434
  Z
  M 422.3257 217.1481
  A 5.46 5.46 0.0 0 0 416.8088 211.7456
  L 415.8889 211.7552
  A 5.46 5.46 0.0 0 0 410.4863 217.2721
  L 410.5343 221.8519
  A 5.46 5.46 0.0 0 0 416.0512 227.2544
  L 416.9711 227.2448
  A 5.46 5.46 0.0 0 0 422.3737 221.7279
  L 422.3257 217.1481
  Z"
/>
<path fill="#000000" d="
  M 245.07 225.59
  L 237.60 225.59
  A 0.95 0.94 -80.4 0 0 236.71 226.23
  L 235.23 230.58
  Q 235.09 230.99 234.66 230.99
  L 231.48 230.98
  Q 230.67 230.98 230.94 230.22
  L 238.06 209.63
  Q 238.26 209.06 238.77 208.75
  C 239.96 208.01 241.74 208.35 243.06 208.54
  Q 244.41 208.74 244.87 210.09
  Q 248.44 220.50 251.90 230.38
  A 0.47 0.46 -9.7 0 1 251.46 231.00
  L 248.35 231.01
  A 1.22 1.21 81.6 0 1 247.19 230.14
  L 246.04 226.31
  Q 245.82 225.59 245.07 225.59
  Z
  M 238.31 221.36
  A 0.48 0.48 0.0 0 0 238.77 221.98
  L 243.89 221.96
  A 0.48 0.48 0.0 0 0 244.35 221.34
  L 241.76 213.31
  A 0.48 0.48 0.0 0 0 240.84 213.32
  L 238.31 221.36
  Z"
/>
<path fill="#000000" d="
  M 339.42 217.05
  L 343.37 210.16
  Q 344.38 208.40 346.40 208.42
  L 346.83 208.42
  Q 348.69 208.43 347.84 210.09
  Q 345.12 215.35 342.12 220.31
  C 340.59 222.84 341.23 227.40 341.23 230.33
  Q 341.23 230.99 340.57 230.99
  L 337.47 231.01
  Q 336.83 231.02 336.82 230.38
  C 336.75 227.46 337.47 222.93 335.92 220.31
  Q 332.87 215.13 330.04 209.80
  Q 329.19 208.20 331.00 208.32
  L 331.93 208.38
  A 3.56 3.55 76.8 0 1 334.75 210.13
  L 338.81 217.05
  A 0.35 0.35 0.0 0 0 339.42 217.05
  Z"
/>
<path fill="#000000" d="
  M 373.72 218.70
  Q 378.82 221.08 377.15 226.55
  Q 375.91 230.64 370.79 230.89
  Q 365.88 231.13 360.26 231.00
  Q 359.74 230.99 359.75 230.47
  L 359.81 209.02
  Q 359.81 208.48 360.35 208.45
  Q 364.53 208.22 369.92 208.42
  C 374.31 208.58 377.31 211.98 375.14 216.15
  Q 374.86 216.68 374.41 217.09
  L 373.59 217.81
  Q 372.98 218.35 373.72 218.70
  Z
  M 364.21 212.11
  L 364.21 216.57
  A 0.68 0.68 0.0 0 0 364.88 217.25
  L 368.93 217.26
  A 2.81 2.57 0.1 0 0 371.75 214.70
  L 371.75 214.02
  A 2.81 2.57 0.1 0 0 368.95 211.44
  L 364.90 211.43
  A 0.68 0.68 0.0 0 0 364.21 212.11
  Z
  M 364.18 221.25
  L 364.22 226.71
  A 0.67 0.67 0.0 0 0 364.90 227.37
  L 369.83 227.33
  A 3.26 2.78 -0.5 0 0 373.07 224.52
  L 373.05 223.28
  A 3.26 2.78 -0.5 0 0 369.77 220.53
  L 364.84 220.57
  A 0.67 0.67 0.0 0 0 364.18 221.25
  Z"
/>
<path fill="#000000" d="
  M 444.91 208.24
  L 448.17 208.45
  A 0.45 0.45 0.0 0 1 448.49 209.18
  L 441.02 218.69
  A 0.45 0.45 0.0 0 0 441.02 219.25
  L 449.74 230.28
  A 0.45 0.45 0.0 0 1 449.39 231.01
  L 445.31 231.00
  A 0.45 0.45 0.0 0 1 444.97 230.83
  L 437.26 221.34
  A 0.45 0.45 0.0 0 0 436.46 221.63
  L 436.40 230.55
  A 0.45 0.45 0.0 0 1 435.96 230.99
  L 432.44 231.03
  A 0.45 0.45 0.0 0 1 431.98 230.58
  L 432.00 208.73
  A 0.45 0.45 0.0 0 1 432.46 208.29
  L 435.88 208.40
  A 0.45 0.45 0.0 0 1 436.31 208.83
  L 436.53 216.85
  A 0.45 0.45 0.0 0 0 437.32 217.13
  L 444.53 208.41
  A 0.45 0.45 0.0 0 1 444.91 208.24
  Z"
/>
<path fill="#000000" d="
  M 320.47 217.77
  Q 318.13 223.45 316.00 230.45
  Q 315.83 231.00 315.27 231.00
  L 312.68 231.01
  Q 312.11 231.01 311.92 230.47
  L 307.69 218.51
  Q 306.28 214.51 306.28 218.76
  L 306.28 230.49
  Q 306.28 231.01 305.76 231.01
  L 302.99 231.01
  Q 302.23 231.01 302.23 230.24
  L 302.37 209.49
  A 1.11 1.11 0.0 0 1 303.51 208.38
  L 306.65 208.45
  Q 308.06 208.49 308.56 209.81
  Q 311.11 216.55 313.49 223.96
  Q 313.57 224.20 313.75 224.37
  Q 314.28 224.87 314.52 224.18
  L 319.76 209.24
  A 1.08 1.08 0.0 0 1 320.78 208.51
  L 324.51 208.46
  Q 325.57 208.45 325.58 209.51
  L 325.77 230.11
  Q 325.78 231.01 324.88 231.00
  L 322.25 230.99
  A 0.72 0.72 0.0 0 1 321.53 230.26
  L 321.54 217.99
  Q 321.54 215.17 320.47 217.77
  Z"
/>
<path fill="#000000" d="
  M 129.97 209.05
  Q 130.78 208.84 130.68 210.07
  Q 130.64 210.56 130.93 210.96
  Q 131.01 211.07 131.13 211.13
  Q 131.70 211.45 131.07 211.27
  Q 128.65 210.58 125.64 210.65
  Q 125.07 210.66 125.00 211.24
  Q 124.86 212.51 126.06 213.12
  Q 132.26 216.23 135.89 220.72
  A 2.07 2.07 0.0 0 0 136.98 221.42
  Q 138.24 221.75 139.14 222.58
  Q 140.04 223.42 138.82 223.40
  Q 138.79 223.40 138.32 222.94
  C 136.35 221.77 134.35 220.94 132.86 219.10
  Q 130.11 215.71 126.13 213.94
  Q 124.26 213.10 124.04 211.19
  A 1.03 1.03 0.0 0 1 125.15 210.04
  Q 127.00 210.18 128.96 209.88
  Q 130.38 209.66 129.97 209.05
  Z"
/>
<path fill="#a07556" d="
  M 92.52 213.62
  L 92.61 213.36
  Q 92.71 213.09 92.42 213.12
  Q 92.21 213.14 91.97 213.02
  Q 93.21 212.17 92.90 210.87
  Q 92.79 210.44 93.20 210.27
  Q 93.41 210.18 93.65 210.47
  A 0.42 0.41 -52.7 0 1 93.70 210.86
  Q 93.23 211.98 93.33 213.19
  Q 93.38 213.69 92.87 213.65
  L 92.52 213.62
  Z"
/>
<path fill="#000000" d="
  M 92.41 217.75
  C 87.65 214.92 86.01 219.10 82.95 221.68
  Q 82.12 222.38 82.65 221.43
  C 83.71 219.55 87.05 215.65 89.49 216.17
  Q 90.26 216.33 91.00 216.58
  C 91.84 216.86 92.36 216.66 92.95 216.10
  Q 95.93 213.34 99.55 211.85
  Q 99.87 211.72 99.63 211.97
  Q 98.19 213.53 96.08 214.08
  Q 95.58 214.21 95.24 214.59
  L 92.41 217.75
  Z"
/>
<path fill="#000000" d="
  M 82.69 212.19
  Q 82.37 212.96 83.25 212.96
  Q 87.68 212.94 91.97 213.02
  Q 92.21 213.14 92.42 213.12
  Q 92.71 213.09 92.61 213.36
  L 92.52 213.62
  L 91.90 213.71
  Q 88.67 213.52 85.25 213.90
  Q 84.12 214.03 81.56 213.07
  L 82.69 212.19
  Z"
/>
<path fill="#e6b598" d="
  M 81.56 213.07
  Q 84.12 214.03 85.25 213.90
  Q 88.67 213.52 91.90 213.71
  Q 90.76 215.27 92.95 216.10
  C 92.36 216.66 91.84 216.86 91.00 216.58
  Q 90.26 216.33 89.49 216.17
  C 87.05 215.65 83.71 219.55 82.65 221.43
  Q 82.12 222.38 82.95 221.68
  C 86.01 219.10 87.65 214.92 92.41 217.75
  L 93.49 221.95
  Q 87.41 224.36 81.40 226.72
  C 79.67 227.40 77.22 227.95 75.37 228.13
  Q 63.61 229.27 51.77 230.28
  L 53.78 216.81
  Q 62.14 218.38 71.75 217.98
  C 76.08 217.80 78.34 215.74 81.56 213.07
  Z"
/>
<path fill="#f9d67e" d="
  M 158.45 229.53
  Q 160.17 223.11 158.09 216.94
  Q 167.09 216.08 176.26 214.87
  C 179.24 214.47 182.27 214.32 185.24 214.36
  Q 186.82 214.38 187.81 215.81
  C 190.46 219.65 196.06 228.82 194.89 232.57
  Q 194.77 232.96 194.43 233.16
  Q 192.80 234.12 190.74 234.34
  Q 181.29 235.35 172.50 233.22
  Q 170.60 232.76 165.44 231.85
  Q 161.70 231.20 158.45 229.53
  Z"
/>
<rect fill="#000000" x="-0.25" y="-6.27" transform="translate(44.05,222.66) rotate(12.1)" width="0.50" height="12.54" rx="0.24"/>
<path fill="#000000" d="
  M 72.80 266.76
  L 71.90 269.58
  A 0.56 0.56 0.0 0 1 71.38 269.97
  L 69.61 270.02
  A 0.56 0.56 0.0 0 1 69.07 269.27
  L 73.97 255.22
  A 0.56 0.56 0.0 0 1 74.50 254.85
  L 77.37 254.83
  A 0.56 0.56 0.0 0 1 77.90 255.21
  L 82.77 269.30
  A 0.56 0.56 0.0 0 1 82.23 270.04
  L 80.40 269.98
  A 0.56 0.56 0.0 0 1 79.88 269.60
  L 78.92 266.78
  A 0.56 0.56 0.0 0 0 78.39 266.40
  L 73.34 266.37
  A 0.56 0.56 0.0 0 0 72.80 266.76
  Z
  M 73.89 263.38
  A 0.46 0.46 0.0 0 0 74.33 263.99
  L 77.40 263.95
  A 0.46 0.46 0.0 0 0 77.83 263.33
  L 76.24 258.83
  A 0.46 0.46 0.0 0 0 75.37 258.84
  L 73.89 263.38
  Z"
/>
<path fill="#000000" d="
  M 95.17 263.32
  Q 95.62 259.53 95.42 255.66
  Q 95.37 254.79 96.24 254.82
  L 97.14 254.85
  Q 98.14 254.88 98.15 255.89
  L 98.18 269.24
  Q 98.18 269.78 97.65 269.89
  Q 96.53 270.13 95.55 269.91
  Q 95.04 269.79 94.79 269.34
  Q 92.10 264.58 89.17 260.49
  Q 88.29 259.27 88.29 260.77
  L 88.27 269.24
  Q 88.26 270.00 87.51 270.00
  L 86.25 269.99
  Q 85.51 269.99 85.52 269.25
  L 85.66 255.31
  A 0.53 0.52 0.6 0 1 86.19 254.80
  L 88.38 254.83
  A 0.76 0.75 -15.8 0 1 89.02 255.18
  L 94.25 263.53
  Q 95.00 264.74 95.17 263.32
  Z"
/>
<rect fill="#000000" x="107.36" y="254.85" width="2.82" height="15.06" rx="0.68"/>
<path fill="#000000" d="
  M 123.93 263.56
  L 123.93 255.44
  Q 123.93 254.80 124.56 254.82
  L 125.71 254.86
  A 0.84 0.84 0.0 0 1 126.52 255.70
  L 126.52 269.20
  Q 126.52 269.72 126.02 269.89
  C 125.02 270.21 123.72 269.98 123.13 269.00
  Q 120.35 264.34 117.66 260.22
  Q 116.76 258.82 116.76 260.49
  L 116.80 269.24
  Q 116.80 270.03 116.01 270.02
  L 114.49 269.99
  Q 114.01 269.98 114.01 269.49
  L 114.02 255.50
  Q 114.02 254.77 114.75 254.80
  L 116.57 254.89
  Q 117.35 254.93 117.76 255.59
  L 122.95 263.85
  Q 123.93 265.42 123.93 263.56
  Z"
/>
<rect fill="#000000" x="-1.39" y="-7.58" transform="translate(132.20,262.43) rotate(-0.5)" width="2.78" height="15.16" rx="0.82"/>
<path fill="#000000" d="
  M 144.22 257.24
  A 1.09 1.09 0.0 0 0 143.35 258.32
  L 143.49 269.25
  Q 143.50 269.99 142.75 269.99
  L 141.21 269.99
  Q 140.68 269.99 140.69 269.46
  L 140.70 258.20
  A 1.00 1.00 0.0 0 0 139.70 257.19
  L 137.00 257.20
  Q 136.29 257.20 136.28 256.50
  L 136.27 255.72
  Q 136.25 254.92 137.06 254.92
  L 147.10 254.91
  Q 148.04 254.90 148.02 255.85
  L 148.01 256.20
  A 0.98 0.98 0.0 0 1 146.91 257.15
  Q 145.48 256.97 144.22 257.24
  Z"
/>
<rect fill="#000000" x="-1.32" y="-7.58" transform="translate(151.96,262.43) rotate(0.1)" width="2.64" height="15.16" rx="0.57"/>
<path fill="#000000" d="
  M 165.22 266.32
  L 160.54 266.35
  A 0.96 0.96 0.0 0 0 159.61 267.08
  L 159.01 269.44
  Q 158.88 269.98 158.31 269.99
  L 156.43 270.00
  Q 155.84 270.01 156.03 269.44
  L 160.76 255.74
  Q 160.98 255.10 161.64 254.97
  Q 163.00 254.69 164.17 254.86
  Q 164.82 254.95 165.04 255.57
  L 169.79 269.40
  Q 170.00 270.02 169.34 270.01
  L 167.66 270.00
  Q 167.03 269.99 166.84 269.39
  L 166.10 266.96
  Q 165.90 266.31 165.22 266.32
  Z
  M 160.91 263.24
  A 0.58 0.58 0.0 0 0 161.46 263.99
  L 164.30 263.98
  A 0.58 0.58 0.0 0 0 164.85 263.22
  L 163.41 258.89
  A 0.58 0.58 0.0 0 0 162.30 258.90
  L 160.91 263.24
  Z"
/>
<path fill="#000000" d="
  M 178.03 257.58
  L 178.07 269.61
  A 0.40 0.40 0.0 0 1 177.66 270.01
  L 175.42 269.99
  A 0.40 0.40 0.0 0 1 175.02 269.58
  L 175.16 257.64
  A 0.40 0.40 0.0 0 0 174.76 257.23
  L 171.24 257.16
  A 0.40 0.40 0.0 0 1 170.85 256.77
  L 170.82 255.39
  A 0.40 0.40 0.0 0 1 171.22 254.98
  L 181.86 254.89
  A 0.40 0.40 0.0 0 1 182.26 255.30
  L 182.25 256.79
  A 0.40 0.40 0.0 0 1 181.85 257.18
  L 178.43 257.18
  A 0.40 0.40 0.0 0 0 178.03 257.58
  Z"
/>
<rect fill="#000000" x="-1.39" y="-7.60" transform="translate(186.20,262.38) rotate(0.2)" width="2.78" height="15.20" rx="0.81"/>
<path fill="#000000" d="
  M 197.51 265.38
  L 200.81 255.18
  A 0.47 0.47 0.0 0 1 201.25 254.86
  L 203.12 254.84
  A 0.47 0.47 0.0 0 1 203.57 255.46
  L 198.83 269.65
  A 0.47 0.47 0.0 0 1 198.38 269.97
  L 195.59 269.93
  A 0.47 0.47 0.0 0 1 195.15 269.61
  L 190.36 255.43
  A 0.47 0.47 0.0 0 1 190.82 254.81
  L 192.80 254.88
  A 0.47 0.47 0.0 0 1 193.23 255.20
  L 196.62 265.39
  A 0.47 0.47 0.0 0 0 197.51 265.38
  Z"
/>
<path fill="#000000" d="
  M 209.19 257.67
  L 209.15 260.44
  A 0.48 0.48 0.0 0 0 209.63 260.92
  L 214.84 260.87
  A 0.48 0.48 0.0 0 1 215.33 261.34
  L 215.35 262.75
  A 0.48 0.48 0.0 0 1 214.87 263.24
  L 209.66 263.23
  A 0.48 0.48 0.0 0 0 209.17 263.72
  L 209.21 267.04
  A 0.48 0.48 0.0 0 0 209.68 267.51
  L 215.94 267.58
  A 0.48 0.48 0.0 0 1 216.42 268.06
  L 216.42 269.53
  A 0.48 0.48 0.0 0 1 215.94 270.01
  L 206.86 270.00
  A 0.48 0.48 0.0 0 1 206.38 269.52
  L 206.37 255.30
  A 0.48 0.48 0.0 0 1 206.85 254.82
  L 215.80 254.80
  A 0.48 0.48 0.0 0 1 216.28 255.28
  L 216.29 256.76
  A 0.48 0.48 0.0 0 1 215.81 257.24
  L 209.68 257.20
  A 0.48 0.48 0.0 0 0 209.19 257.67
  Z"
/>
<path fill="#000000" d="
  M 230.25 257.68
  L 230.25 269.49
  A 0.49 0.49 0.0 0 1 229.77 269.98
  L 227.94 269.99
  A 0.49 0.49 0.0 0 1 227.45 269.51
  L 227.42 257.72
  A 0.49 0.49 0.0 0 0 226.94 257.24
  L 223.49 257.20
  A 0.49 0.49 0.0 0 1 223.01 256.73
  L 222.97 255.37
  A 0.49 0.49 0.0 0 1 223.45 254.87
  L 234.05 254.80
  A 0.49 0.49 0.0 0 1 234.55 255.29
  L 234.56 256.75
  A 0.49 0.49 0.0 0 1 234.06 257.25
  L 230.75 257.19
  A 0.49 0.49 0.0 0 0 230.25 257.68
  Z"
/>
<path fill="#000000" d="
  M 250.1929 263.7961
  A 6.32 6.32 0.0 0 1 243.8399 270.0829
  L 242.6800 270.0769
  A 6.32 6.32 0.0 0 1 236.3931 263.7239
  L 236.4071 261.0639
  A 6.32 6.32 0.0 0 1 242.7601 254.7771
  L 243.9200 254.7831
  A 6.32 6.32 0.0 0 1 250.2069 261.1361
  L 250.1929 263.7961
  Z
  M 247.26 260.81
  A 3.66 3.66 0.0 0 0 243.60 257.15
  L 242.98 257.15
  A 3.66 3.66 0.0 0 0 239.32 260.81
  L 239.32 263.97
  A 3.66 3.66 0.0 0 0 242.98 267.63
  L 243.60 267.63
  A 3.66 3.66 0.0 0 0 247.26 263.97
  L 247.26 260.81
  Z"
/>
<path fill="#000000" d="
  M 262.20 260.57
  L 268.19 260.55
  A 0.48 0.48 0.0 0 0 268.67 260.07
  L 268.66 255.25
  A 0.48 0.48 0.0 0 1 269.14 254.77
  L 271.00 254.79
  A 0.48 0.48 0.0 0 1 271.48 255.27
  L 271.49 269.50
  A 0.48 0.48 0.0 0 1 271.02 269.98
  L 269.17 270.03
  A 0.48 0.48 0.0 0 1 268.68 269.55
  L 268.69 263.49
  A 0.48 0.48 0.0 0 0 268.21 263.01
  L 262.14 263.07
  A 0.48 0.48 0.0 0 0 261.66 263.55
  L 261.68 269.47
  A 0.48 0.48 0.0 0 1 261.22 269.95
  L 259.31 270.02
  A 0.48 0.48 0.0 0 1 258.81 269.54
  L 258.83 255.29
  A 0.48 0.48 0.0 0 1 259.30 254.81
  L 261.14 254.76
  A 0.48 0.48 0.0 0 1 261.63 255.23
  L 261.72 260.10
  A 0.48 0.48 0.0 0 0 262.20 260.57
  Z"
/>
<path fill="#000000" d="
  M 278.43 263.75
  L 278.44 267.01
  A 0.53 0.53 0.0 0 0 278.97 267.54
  L 285.14 267.55
  A 0.53 0.53 0.0 0 1 285.67 268.07
  L 285.69 269.48
  A 0.53 0.53 0.0 0 1 285.16 270.02
  L 276.07 269.99
  A 0.53 0.53 0.0 0 1 275.54 269.46
  L 275.58 255.37
  A 0.53 0.53 0.0 0 1 276.11 254.84
  L 284.97 254.82
  A 0.53 0.53 0.0 0 1 285.50 255.34
  L 285.53 256.70
  A 0.53 0.53 0.0 0 1 285.00 257.24
  L 278.98 257.22
  A 0.53 0.53 0.0 0 0 278.44 257.74
  L 278.37 260.36
  A 0.53 0.53 0.0 0 0 278.90 260.91
  L 284.04 260.87
  A 0.53 0.53 0.0 0 1 284.57 261.38
  L 284.63 262.70
  A 0.53 0.53 0.0 0 1 284.09 263.26
  L 278.96 263.22
  A 0.53 0.53 0.0 0 0 278.43 263.75
  Z"
/>
<path fill="#000000" d="
  M 291.97 267.49
  L 297.79 267.54
  A 0.50 0.50 0.0 0 1 298.29 268.04
  L 298.29 269.52
  A 0.50 0.50 0.0 0 1 297.79 270.02
  L 289.04 270.00
  A 0.50 0.50 0.0 0 1 288.54 269.50
  L 288.58 255.29
  A 0.50 0.50 0.0 0 1 289.07 254.79
  L 290.88 254.78
  A 0.50 0.50 0.0 0 1 291.38 255.27
  L 291.48 267.00
  A 0.50 0.50 0.0 0 0 291.97 267.49
  Z"
/>
<path fill="#000000" d="
  M 303.68 264.98
  L 303.62 269.33
  A 0.69 0.69 0.0 0 1 302.92 270.01
  L 301.39 269.99
  A 0.60 0.60 0.0 0 1 300.80 269.39
  L 300.82 255.47
  Q 300.82 254.88 301.41 254.84
  C 304.74 254.64 310.74 254.10 311.45 258.31
  C 312.30 263.29 308.84 264.59 304.49 264.24
  Q 303.69 264.18 303.68 264.98
  Z
  M 303.71 257.67
  L 303.69 261.39
  A 0.55 0.55 0.0 0 0 304.23 261.95
  L 306.59 261.96
  A 2.17 2.05 0.4 0 0 308.78 259.93
  L 308.78 259.21
  A 2.17 2.05 0.4 0 0 306.63 257.14
  L 304.27 257.13
  A 0.55 0.55 0.0 0 0 303.71 257.67
  Z"
/>
<path fill="#000000" d="
  M 326.06 264.19
  C 324.25 263.26 320.39 263.20 319.47 261.04
  Q 317.71 256.88 321.44 255.24
  Q 324.95 253.70 328.85 255.91
  Q 329.64 256.36 329.03 257.04
  L 328.20 257.98
  Q 327.80 258.43 327.31 258.07
  Q 325.17 256.50 322.63 257.44
  A 1.27 1.24 -0.2 0 0 321.89 258.17
  C 321.37 259.54 322.56 260.47 323.77 260.63
  C 325.85 260.91 329.04 261.56 329.64 263.93
  C 331.45 270.99 323.14 271.33 319.11 268.32
  Q 318.44 267.82 318.81 267.07
  Q 319.14 266.43 319.69 265.95
  Q 320.26 265.47 320.78 266.01
  Q 323.09 268.41 325.89 267.35
  A 1.73 1.73 0.0 0 0 326.06 264.19
  Z"
/>
<path fill="#000000" d="
  M 335.39 257.23
  L 332.01 257.25
  A 0.50 0.50 0.0 0 1 331.51 256.75
  L 331.49 255.30
  A 0.50 0.50 0.0 0 1 331.99 254.80
  L 342.69 254.81
  A 0.50 0.50 0.0 0 1 343.19 255.33
  L 343.14 256.77
  A 0.50 0.50 0.0 0 1 342.63 257.26
  L 339.28 257.22
  A 0.50 0.50 0.0 0 0 338.78 257.72
  L 338.74 269.45
  A 0.50 0.50 0.0 0 1 338.26 269.95
  L 336.43 270.00
  A 0.50 0.50 0.0 0 1 335.91 269.50
  L 335.89 257.73
  A 0.50 0.50 0.0 0 0 335.39 257.23
  Z"
/>
<path fill="#000000" d="
  M 350.67 267.57
  Q 351.15 267.69 351.62 267.67
  Q 354.93 267.54 354.92 264.23
  L 354.89 255.32
  Q 354.89 254.78 355.43 254.78
  L 357.18 254.79
  Q 357.74 254.79 357.72 255.35
  Q 357.62 258.59 357.75 262.72
  C 357.89 267.35 356.49 270.30 351.22 270.17
  C 347.28 270.07 345.37 267.78 345.44 263.98
  Q 345.54 259.10 345.50 255.24
  A 0.45 0.45 0.0 0 1 345.95 254.78
  L 347.77 254.79
  Q 348.25 254.79 348.26 255.27
  L 348.26 264.46
  Q 348.26 266.94 350.67 267.57
  Z"
/>
<path fill="#000000" d="
  M 361.81 255.26
  A 0.44 0.44 0.0 0 1 362.25 254.82
  L 367.69 254.81
  A 7.04 6.77 -0.1 0 1 374.74 261.57
  L 374.74 263.19
  A 7.04 6.77 -0.1 0 1 367.71 269.97
  L 362.27 269.98
  A 0.44 0.44 0.0 0 1 361.83 269.54
  L 361.81 255.26
  Z
  M 364.72 257.83
  L 364.72 266.93
  A 0.61 0.61 0.0 0 0 365.33 267.54
  L 367.57 267.54
  A 4.32 4.21 90.0 0 0 371.78 263.22
  L 371.78 261.54
  A 4.32 4.21 -90.0 0 0 367.57 257.22
  L 365.33 257.22
  A 0.61 0.61 0.0 0 0 364.72 257.83
  Z"
/>
<path fill="#000000" d="
  M 380.99 263.65
  L 381.00 267.12
  A 0.42 0.42 0.0 0 0 381.42 267.54
  L 387.79 267.58
  A 0.42 0.42 0.0 0 1 388.21 267.99
  L 388.22 269.57
  A 0.42 0.42 0.0 0 1 387.81 269.99
  L 378.42 270.01
  A 0.42 0.42 0.0 0 1 378.00 269.59
  L 378.00 255.22
  A 0.42 0.42 0.0 0 1 378.42 254.80
  L 387.61 254.84
  A 0.42 0.42 0.0 0 1 388.03 255.27
  L 388.00 256.81
  A 0.42 0.42 0.0 0 1 387.58 257.22
  L 381.41 257.22
  A 0.42 0.42 0.0 0 0 380.99 257.64
  L 380.99 260.48
  A 0.42 0.42 0.0 0 0 381.41 260.90
  L 386.72 260.92
  A 0.42 0.42 0.0 0 1 387.14 261.34
  L 387.12 262.83
  A 0.42 0.42 0.0 0 1 386.70 263.25
  L 381.41 263.23
  A 0.42 0.42 0.0 0 0 380.99 263.65
  Z"
/>
<path fill="#000000" d="
  M 400.81 263.89
  Q 401.04 259.44 400.84 255.26
  Q 400.81 254.78 401.29 254.78
  L 403.18 254.78
  A 0.51 0.50 0.6 0 1 403.69 255.29
  L 403.61 269.28
  Q 403.60 269.92 402.96 270.00
  Q 402.03 270.10 401.16 269.92
  Q 400.60 269.80 400.29 269.31
  L 394.71 260.25
  Q 393.79 258.75 393.80 260.51
  L 393.86 269.32
  Q 393.86 270.00 393.18 270.00
  L 391.50 270.01
  A 0.51 0.50 90.0 0 1 391.00 269.50
  L 391.01 255.26
  A 0.47 0.47 0.0 0 1 391.49 254.79
  L 393.86 254.83
  Q 394.38 254.83 394.65 255.27
  L 400.15 264.06
  Q 400.75 265.00 400.81 263.89
  Z"
/>
<path fill="#000000" d="
  M 406.24 256.70
  L 406.23 255.36
  A 0.54 0.54 0.0 0 1 406.77 254.82
  L 417.41 254.82
  A 0.54 0.54 0.0 0 1 417.95 255.37
  L 417.92 256.73
  A 0.54 0.54 0.0 0 1 417.38 257.26
  L 414.04 257.22
  A 0.54 0.54 0.0 0 0 413.50 257.76
  L 413.49 269.42
  A 0.54 0.54 0.0 0 1 412.97 269.96
  L 411.25 270.04
  A 0.54 0.54 0.0 0 1 410.69 269.50
  L 410.68 257.78
  A 0.54 0.54 0.0 0 0 410.14 257.24
  L 406.78 257.24
  A 0.54 0.54 0.0 0 1 406.24 256.70
  Z"
/>
<path fill="#000000" d="
  M 426.70 264.34
  Q 425.46 263.33 423.48 263.21
  C 419.06 262.94 417.81 256.93 422.11 255.16
  Q 425.43 253.80 429.12 255.73
  Q 430.01 256.20 429.44 257.02
  L 428.84 257.87
  Q 428.43 258.46 427.84 258.05
  C 426.45 257.07 423.47 256.44 422.49 258.15
  A 1.53 1.52 -68.6 0 0 423.46 260.38
  Q 425.42 260.85 427.28 261.34
  C 430.59 262.21 431.38 266.45 429.21 268.66
  C 426.67 271.24 421.85 270.30 419.41 268.08
  A 0.80 0.80 0.0 0 1 419.30 267.00
  L 420.15 265.85
  A 0.59 0.59 0.0 0 1 421.05 265.80
  Q 423.79 268.73 426.46 267.21
  Q 428.68 265.95 426.70 264.34
  Z"
/>
</svg>
